<svg id="arah_1" xmlns="http://www.w3.org/2000/svg" viewBox="0 0 1080 1920"><defs><style>.cls-1{fill:#fabd2c;}.cls-2,.cls-6{fill:#e3892c;}.cls-2,.cls-3{opacity:0.5;}.cls-3,.cls-7{fill:#e48a2c;}.cls-4{fill:#35464c;}.cls-5{fill:#e5e5e5;}.cls-6{opacity:0.83;}</style></defs><title>svg_1</title>
<path class="cls-1" d="M780.2,589c0,78.8-33.83,149.14-86.66,195-39.93,34.66-90.75,55.44-146,
	55.44s-106.34-20.85-146.28-55.72a.78.78,0,0,1-.19-.14c-52.64-46-86.22-116.1-86.22-194.63,0-138.31,104.2-250.49,232.68-250.49S780.2,450.7,780.2,589Z"/>
	<path class="cls-2" d="M693.54,784c-39.93,34.66-90.75,55.44-146,55.44s-106.34-20.85-146.28-55.72C406.52,787,535.81,864.06,693.54,784Z"/><path class="cls-3" d="M609.74,593.8l50.83,45.13-33.11-23.69s-7-4.63-12.37-5l-5.36-.41Z"/><rect class="cls-1" x="406.59" y="870.68" width="281.85" height="290.94"/>
	<path class="cls-1" d="M436.89,1530.58H518V1294.76s6.89-19.18,22.61-23.69h13.72c15.72,4.51,22.61,23.69,22.61,23.69v235.82h81.16l30.3-369H406.59Z"/><rect class="cls-4" x="491.34" y="499.45" width="127.87" height="233.84"/>
	<rect x="491.34" y="499.45" width="127.87" height="44.64"/><rect x="491.34" y="688.65" width="127.87" height="44.64"/><ellipse class="cls-5" cx="583.31" cy="521.76" rx="3.4" ry="3.82"/>
	<ellipse class="cls-5" cx="600.67" cy="521.64" rx="9.48" ry="10.66"/><ellipse class="cls-4" cx="600.67" cy="521.76" rx="3.4" ry="3.82"/>
	<polygon class="cls-6" points="555.28 870.68 647.41 870.68 601.35 937.17 555.28 1003.66 509.21 937.17 463.14 870.68 555.28 870.68"/><path class="cls-1" d="M407.25,1048.51c-59.14-62.18-91.2-120-108.43-157.12-15.11-32.59-22-56.3-19.54-83.79,3.82-41.9,27.6-71,39.3-83.49L474.14,612.78,518,677.55c-13.31,12.27-81.7,75.75-113.7,123.94-8.53,12.84-17.39,28.59-13.31,45.09a44,44,0,0,0,16.29,24.36Z"/><ellipse class="cls-1" cx="491.86" cy="648.06" rx="37.85" ry="40.74"/>
	<ellipse class="cls-1" cx="334.61" cy="823.11" rx="53.87" ry="57.99"/><polygon class="cls-3" points="407.25 1048.51 407.25 870.94 381.88 1020.19 407.25 1048.51"/><path class="cls-3" d="M491.86,591.34,441,636.47l33.11-23.69s7-4.63,12.37-5l5.36-.41Z"/>
	<path class="cls-7" d="M415.28,786.11l29.07-34.72L454,740.86l15.83-16.58L489.09,705l2.77-2.71S440.43,730.63,415.28,786.11Z"/><path class="cls-1" d="M688,1048.3c59.14-62.18,91.2-120,108.43-157.12,15.11-32.59,22-56.3,19.54-83.79-3.82-41.9-27.6-71-39.3-83.49L621.14,612.57l-43.83,64.77C590.63,689.6,659,753.09,691,801.28c8.53,12.84,17.39,28.59,13.31,45.09A44,44,0,0,1,688,870.73Z"/><ellipse class="cls-1" cx="603.42" cy="647.85" rx="37.85" ry="40.74"/><ellipse class="cls-1" cx="760.67" cy="822.9" rx="53.87" ry="57.99"/>
	<polygon class="cls-3" points="688.03 1048.3 688.03 870.73 713.4 1019.98 688.03 1048.3"/><path class="cls-7" d="M680,785.9l-29.07-34.72-9.67-10.53-15.83-16.58-19.24-19.27-2.77-2.71S654.85,730.42,680,785.9Z"/></svg>