<svg xmlns="http://www.w3.org/2000/svg" viewBox="0 0 1080 1920"><defs><style>.cls-1{fill:#fbbd2d;}.cls-10,.cls-2,.cls-7,.cls-9{fill:#ce592c;}.cls-2{opacity:0.5;}.cls-3{fill:#fff;opacity:0.17;}.cls-4{fill:#455a64;}.cls-5{fill:#35464c;}.cls-6{opacity:0.3;}.cls-8{fill:#b93c1a;}.cls-9{opacity:0.4;}.cls-10{opacity:0.49;}</style></defs><title>svg_5</title><g id="arah_5"><path class="cls-1" d="M246.35,604.47c0-20.27,17.34-36.7,38.74-36.7A39.56,39.56,0,0,1,313.89,580c21.48,18.14,91.27,77,134,112.2l0,.06a64.21,64.21,0,0,1,15,7.52l0,0c19.64,6.88,192.47,28.8,192.47,28.8l0,.27c30.17,2.67,53.8,26.71,53.8,56,0,26.26-19,48.26-44.7,54.46v.07s-63.15,32.15-250.88-32.22h0A64.13,64.13,0,0,1,381,790.33h0s-120.57-107.26-133-175.06h0A34.91,34.91,0,0,1,246.35,604.47Z"/><path class="cls-2" d="M265.76,658c14,23.75,34,48.54,53.4,70.18C350.88,763.51,381,790.34,381,790.34a64,64,0,0,0,32.55,16.76c187.74,64.37,250.9,32.24,250.9,32.24v-.09c25.66-6.19,44.71-28.19,44.71-54.44,0-.57,0-1.17,0-1.74-3.07,9.88-9.1,23.63-21.95,34.7-27.17,23.41-67.84,18.48-121.94,12.14-37.05-4.34-63.28-11.12-88.38-17.82-39.91-10.65-58-19.18-69.58-25.42-14.25-7.67-26-15.84-39.61-26.6C325.09,726.25,288.57,685.47,265.76,658Z"/><path class="cls-3" d="M259.56,576.92h4.51a104.85,104.85,0,0,1,24.07,3.56c13.54,3.56,35.38,24.57,47.78,34.92s68.84,63.42,98.14,83.38c26.15,17.76,174.41,26.22,206.7,27.85-42.15-5.44-161.69-21.24-177.81-26.91v0a65.21,65.21,0,0,0-15-7.5l0-.06C405.21,657,335.44,598.13,314,580a40.19,40.19,0,0,0-54.4-3.08Z"/><rect class="cls-4" x="278.48" y="452.37" width="27.27" height="227.33" transform="translate(584.22 1132.07) rotate(-180)"/><path class="cls-5" d="M245.41,648.37l33.07,31.32V452.37L245.41,421Z"/><rect class="cls-6" x="278.48" y="452.37" width="27.27" height="48.1" transform="translate(584.22 952.84) rotate(-180)"/><rect class="cls-6" x="278.48" y="631.6" width="27.27" height="48.1" transform="translate(584.22 1311.29) rotate(180)"/><polygon points="278.48 631.6 245.41 600.27 245.41 648.38 278.48 679.7 278.48 631.6"/><polygon points="305.75 452.37 272.87 421.04 245.41 421.04 245.32 468.89 278.48 500.47 278.48 452.37 305.75 452.37"/><polygon class="cls-7" points="456.43 707.56 729.27 707.56 769.38 752.7 496.54 752.7 456.43 707.56"/><ellipse class="cls-8" cx="612.16" cy="725.85" rx="97.03" ry="18.29"/><ellipse class="cls-1" cx="615.23" cy="528.28" rx="219.45" ry="207.91"/><path class="cls-9" d="M463.2,678.79c39.44,35.92,93,58,152.06,58s112.56-22,152-58l-.06-.51s-138.4,80.53-303.88,0Z"/><path class="cls-1" d="M769.39,752.69l-86.53,826.18s-43.88,33.73-138.65,15.2l-32.34-30.64L456.43,707.56l40.11,45.13Z"/><path class="cls-10" d="M496.54,752.69l47.67,841.38-32.34-30.64L456.43,707.56Z"/><path class="cls-1" d="M246.35,660.28c0-20.27,17.34-36.7,38.74-36.7a39.56,39.56,0,0,1,28.8,12.22c21.48,18.14,91.27,77,134,112.2l0,.06a64.21,64.21,0,0,1,15,7.52l0,0c19.64,6.88,192.47,28.8,192.47,28.8l0,.27c30.17,2.67,53.8,26.71,53.8,56,0,26.26-19,48.26-44.7,54.46v.07s-63.15,32.15-250.88-32.22h0A64.13,64.13,0,0,1,381,846.14h0s-120.57-107.26-133-175.06h0A34.91,34.91,0,0,1,246.35,660.28Z"/><path class="cls-2" d="M265.76,713.85c14,23.75,34,48.54,53.4,70.18C350.88,819.32,381,846.15,381,846.15a64,64,0,0,0,32.55,16.76c187.74,64.37,250.9,32.24,250.9,32.24v-.09c25.66-6.19,44.71-28.19,44.71-54.44,0-.57,0-1.17,0-1.74-3.07,9.88-9.1,23.63-21.95,34.7C660,897,619.37,892.06,565.27,885.72c-37.05-4.34-63.28-11.12-88.38-17.82-39.91-10.65-58-19.18-69.58-25.42-14.25-7.67-26-15.84-39.61-26.6C325.09,782.06,288.57,741.28,265.76,713.85Z"/><path class="cls-3" d="M259.56,632.73h4.51a104.85,104.85,0,0,1,24.07,3.56c13.54,3.56,35.38,24.57,47.78,34.92s68.84,63.42,98.14,83.38c26.15,17.76,174.41,26.22,206.7,27.85-42.15-5.44-161.69-21.24-177.81-26.91v0a65.21,65.21,0,0,0-15-7.5l0-.06c-42.75-35.2-112.53-94.07-134-112.2a40.19,40.19,0,0,0-54.4-3.08Z"/></g></svg>