<svg xmlns="http://www.w3.org/2000/svg" viewBox="0 0 1080 1920"><defs><style>.cls-1{fill:#fbbd2d;}.cls-10,.cls-2,.cls-7,.cls-9{fill:#ce592c;}.cls-2{opacity:0.5;}.cls-3{fill:#fff;opacity:0.17;}.cls-4{fill:#455a64;}.cls-5{fill:#35464c;}.cls-6{opacity:0.3;}.cls-8{fill:#b93c1a;}.cls-9{opacity:0.4;}.cls-10{opacity:0.49;}</style></defs><title>svg_4</title><g id="arah_4"><path class="cls-1" d="M218.69,873c-11.47-16.71-6.47-40.07,11.17-52.18a39.56,39.56,0,0,1,30.66-6.23c28,2.8,118.82,11.83,174,16.66v.07a64.21,64.21,0,0,1,16.63-2.3v0c20.09-5.44,175-85.18,175-85.18l.17.21c26.39-14.87,59.47-8.42,76,15.72,14.86,21.65,11.63,50.55-6,70.2l0,.05S662.47,892.2,471.27,945.37h0a64.13,64.13,0,0,1-36.34,4.6v0s-160.11-20.19-208.71-69.08h0A34.91,34.91,0,0,1,218.69,873Z"/><path class="cls-2" d="M265,906.15c25,11.66,55.5,20.78,83.75,27.64,46.12,11.15,86.15,16.2,86.15,16.2a64,64,0,0,0,36.32-4.61C662.45,892.2,696.34,830,696.34,830l0-.07c17.66-19.62,20.91-48.55,6-70.19-.32-.47-.66-1-1-1.42,3.06,9.88,5.87,24.63,1.54,41-9.15,34.68-45.47,53.62-93.66,79-33,17.39-58.46,26.65-82.95,35.33-38.93,13.8-58.66,17-71.75,18.42-16.09,1.74-30.44,1.68-47.72.49C352.53,928.81,299.34,915.86,265,906.15Z"/><path class="cls-3" d="M214,842.78l3.72-2.55a104.85,104.85,0,0,1,21.86-10.68c13.18-4.72,43.08.23,59.15,1.75s92.65,13.33,128.1,13.2c31.61-.16,158.64-77.09,186.17-94-37.83,19.37-145.32,74-161.83,78.45l0,0a65.21,65.21,0,0,0-16.62,2.32v-.06c-55.17-4.83-146-13.87-174-16.66A40.19,40.19,0,0,0,214,842.78Z"/><rect class="cls-4" x="221.04" y="701.72" width="27.27" height="227.33" transform="translate(889.6 1354.81) rotate(145.53)"/><path class="cls-5" d="M242.77,909.7l45,7.11L159.1,729.39l-45-7.12Z"/><rect class="cls-6" x="170.32" y="717.45" width="27.27" height="48.1" transform="translate(755.26 1248.72) rotate(145.53)"/><rect class="cls-6" x="271.75" y="865.21" width="27.27" height="48.1" transform="translate(1023.94 1460.9) rotate(145.53)"/><polygon points="260.54 877.15 215.54 870.04 242.77 909.7 287.76 916.81 260.54 877.15"/><polygon points="181.58 713.96 136.75 706.73 114.11 722.27 141.11 761.77 186.33 769.04 159.1 729.39 181.58 713.96"/><polygon class="cls-7" points="489.38 685.67 762.22 685.67 802.33 730.8 529.49 730.8 489.38 685.67"/><ellipse class="cls-8" cx="645.1" cy="703.96" rx="97.03" ry="18.29"/><ellipse class="cls-1" cx="648.18" cy="506.38" rx="219.45" ry="207.91"/><path class="cls-9" d="M496.15,656.89c39.44,35.92,93,58,152.06,58s112.56-22,152-58l-.06-.51s-138.4,80.53-303.88,0Z"/><path class="cls-1" d="M802.33,730.8,715.81,1557s-43.88,33.73-138.65,15.2l-32.34-30.64L489.38,685.67l40.11,45.13Z"/><path class="cls-10" d="M529.49,730.8l47.67,841.38-32.34-30.64L489.38,685.67Z"/><path class="cls-1" d="M250.28,919c-11.47-16.71-6.47-40.07,11.17-52.18a39.56,39.56,0,0,1,30.66-6.23c28,2.8,118.82,11.83,174,16.66v.07a64.21,64.21,0,0,1,16.63-2.3v0c20.09-5.44,175-85.18,175-85.18l.17.21c26.39-14.87,59.47-8.42,76,15.72,14.86,21.65,11.63,50.55-6,70.2l0,.05s-33.87,62.24-225.07,115.42h0a64.13,64.13,0,0,1-36.34,4.6v0S306.4,975.81,257.8,926.93h0A34.91,34.91,0,0,1,250.28,919Z"/><path class="cls-2" d="M296.61,952.16c25,11.66,55.5,20.78,83.75,27.64C426.47,990.95,466.5,996,466.5,996a64,64,0,0,0,36.32-4.61C694,938.21,727.92,876,727.92,876l0-.07c17.66-19.62,20.91-48.55,6-70.19-.32-.47-.66-1-1-1.42,3.06,9.88,5.87,24.63,1.54,41C725.31,880,689,899,640.8,924.35c-33,17.39-58.46,26.65-82.95,35.33-38.93,13.8-58.66,17-71.75,18.42-16.09,1.74-30.44,1.68-47.72.49C384.12,974.82,330.93,961.87,296.61,952.16Z"/><path class="cls-3" d="M245.58,888.8l3.72-2.55a104.85,104.85,0,0,1,21.86-10.68c13.18-4.72,43.08.23,59.15,1.75s92.65,13.33,128.1,13.2c31.61-.16,158.64-77.09,186.17-94-37.83,19.37-145.32,74-161.83,78.45l0,0a65.21,65.21,0,0,0-16.62,2.32v-.06c-55.17-4.83-146-13.87-174-16.66a40.19,40.19,0,0,0-46.59,28.25Z"/></g></svg>