<svg xmlns="http://www.w3.org/2000/svg" viewBox="0 0 1080 1920"><defs><style>.cls-1{fill:#fbbd2d;}.cls-10,.cls-2,.cls-7,.cls-9{fill:#ce592c;}.cls-2{opacity:0.5;}.cls-3{fill:#fff;opacity:0.17;}.cls-4{fill:#455a64;}.cls-5{fill:#35464c;}.cls-6{opacity:0.3;}.cls-8{fill:#b93c1a;}.cls-9{opacity:0.4;}.cls-10{opacity:0.49;}</style></defs><title>svg_3</title><g id="arah_3"><path class="cls-1" d="M894.13,890.29c11.47-16.71,6.47-40.07-11.17-52.18a39.56,39.56,0,0,0-30.66-6.23c-28,2.8-118.82,11.83-174,16.66v.07a64.21,64.21,0,0,0-16.63-2.3v0c-20.09-5.44-175-85.18-175-85.18l-.17.21c-26.39-14.87-59.47-8.42-76,15.72-14.86,21.65-11.63,50.55,6,70.2l0,.05s33.87,62.24,225.07,115.42h0a64.13,64.13,0,0,0,36.34,4.6v0S838,947.11,886.61,898.23h0A34.91,34.91,0,0,0,894.13,890.29Z"/><path class="cls-2" d="M847.81,923.47c-25,11.66-55.5,20.78-83.75,27.64-46.12,11.15-86.15,16.2-86.15,16.2a64,64,0,0,1-36.32-4.61c-191.21-53.19-225.1-115.41-225.1-115.41l0-.07c-17.66-19.62-20.91-48.55-6-70.19.32-.47.66-1,1-1.42-3.06,9.88-5.87,24.63-1.54,41,9.15,34.68,45.47,53.62,93.66,79,33,17.39,58.46,26.65,82.95,35.33,38.93,13.8,58.66,17,71.75,18.42,16.09,1.74,30.44,1.68,47.72.49C760.3,946.13,813.48,933.18,847.81,923.47Z"/><path class="cls-3" d="M898.84,860.1l-3.72-2.55a104.85,104.85,0,0,0-21.86-10.68c-13.18-4.72-43.08.23-59.15,1.75s-92.65,13.33-128.1,13.2c-31.61-.16-158.64-77.09-186.17-94,37.83,19.37,145.32,74,161.83,78.45l0,0a65.21,65.21,0,0,1,16.62,2.32v-.06c55.17-4.83,146-13.87,174-16.66a40.19,40.19,0,0,1,46.59,28.25Z"/><rect class="cls-4" x="864.52" y="719.04" width="27.27" height="227.33" transform="translate(625.42 -350.8) rotate(34.47)"/><path class="cls-5" d="M870.06,927l-45,7.11L953.72,746.71l45-7.12Z"/><rect class="cls-6" x="915.24" y="734.77" width="27.27" height="48.1" transform="translate(592.51 -392.47) rotate(34.47)"/><rect class="cls-6" x="813.81" y="882.53" width="27.27" height="48.1" transform="translate(658.33 -309.13) rotate(34.47)"/><polygon points="852.29 894.47 897.29 887.36 870.06 927.02 825.07 934.13 852.29 894.47"/><polygon points="931.25 731.27 976.08 724.05 998.72 739.59 971.72 779.09 926.5 786.36 953.73 746.71 931.25 731.27"/><polygon class="cls-7" points="623.45 702.98 350.61 702.98 310.5 748.12 583.34 748.12 623.45 702.98"/><ellipse class="cls-8" cx="467.73" cy="721.27" rx="97.03" ry="18.29"/><ellipse class="cls-1" cx="464.65" cy="523.7" rx="219.45" ry="207.91"/><path class="cls-9" d="M616.68,674.21c-39.44,35.92-93,58-152.06,58s-112.56-22-152-58l.06-.51s138.4,80.53,303.88,0Z"/><path class="cls-1" d="M310.5,748.12,397,1574.3s43.88,33.73,138.65,15.2L568,1558.86,623.45,703l-40.11,45.13Z"/><path class="cls-10" d="M583.34,748.12,535.67,1589.5,568,1558.86,623.45,703Z"/><path class="cls-1" d="M862.55,936.3c11.47-16.71,6.47-40.07-11.17-52.18a39.56,39.56,0,0,0-30.66-6.23c-28,2.8-118.82,11.83-174,16.66v.07a64.21,64.21,0,0,0-16.63-2.3v0c-20.09-5.44-175-85.18-175-85.18l-.17.21c-26.39-14.87-59.47-8.42-76,15.72-14.86,21.65-11.63,50.55,6,70.2l0,.05S418.77,955.53,610,1008.7h0a64.13,64.13,0,0,0,36.34,4.6v0S806.43,993.13,855,944.24h0A34.91,34.91,0,0,0,862.55,936.3Z"/><path class="cls-2" d="M816.22,969.48c-25,11.66-55.5,20.78-83.75,27.64-46.12,11.15-86.15,16.2-86.15,16.2a64,64,0,0,1-36.32-4.61C418.79,955.53,384.9,893.3,384.9,893.3l0-.07c-17.66-19.62-20.91-48.55-6-70.19.32-.47.66-1,1-1.42-3.06,9.88-5.87,24.63-1.54,41,9.15,34.68,45.47,53.62,93.66,79C505,959.06,530.49,968.32,555,977c38.93,13.8,58.66,17,71.75,18.42,16.09,1.74,30.44,1.68,47.72.49C728.71,992.14,781.9,979.19,816.22,969.48Z"/><path class="cls-3" d="M867.25,906.11l-3.72-2.55a104.85,104.85,0,0,0-21.86-10.68c-13.18-4.72-43.08.23-59.15,1.75s-92.65,13.33-128.1,13.2c-31.61-.16-158.64-77.09-186.17-94,37.83,19.37,145.32,74,161.83,78.45l0,0a65.21,65.21,0,0,1,16.62,2.32v-.06c55.17-4.83,146-13.87,174-16.66a40.19,40.19,0,0,1,46.59,28.25Z"/></g></svg>