<svg xmlns="http://www.w3.org/2000/svg" viewBox="0 0 1080 1920"><defs><style>.cls-1{fill:#fbbd2d;}.cls-10,.cls-2,.cls-7,.cls-9{fill:#ce592c;}.cls-2{opacity:0.5;}.cls-3{fill:#fff;opacity:0.17;}.cls-4{fill:#455a64;}.cls-5{fill:#35464c;}.cls-6{opacity:0.3;}.cls-8{fill:#b93c1a;}.cls-9{opacity:0.4;}.cls-10{opacity:0.49;}</style></defs><title>svg_2</title><g id="arah_2"><path class="cls-1" d="M874.17,596.66c0-20.27-17.34-36.7-38.74-36.7a39.56,39.56,0,0,0-28.8,12.22c-21.48,18.14-91.27,77-134,112.2l0,.06a64.21,64.21,0,0,0-15,7.52l0,0c-19.64,6.88-192.47,28.8-192.47,28.8l0,.27c-30.17,2.67-53.8,26.71-53.8,56,0,26.26,19,48.26,44.7,54.46v.07s63.15,32.15,250.88-32.22h0a64.13,64.13,0,0,0,32.57-16.77h0s120.57-107.26,133-175.06h0A34.91,34.91,0,0,0,874.17,596.66Z"/><path class="cls-2" d="M854.75,650.23c-14,23.75-34,48.54-53.4,70.18-31.71,35.29-61.86,62.11-61.86,62.11a64,64,0,0,1-32.55,16.76C519.19,863.65,456,831.53,456,831.53v-.09c-25.66-6.19-44.71-28.19-44.71-54.44,0-.57,0-1.17,0-1.74,3.07,9.88,9.1,23.63,21.95,34.7,27.17,23.41,67.84,18.48,121.94,12.14,37.05-4.34,63.28-11.12,88.38-17.82,39.91-10.65,58-19.18,69.58-25.42,14.25-7.67,26-15.84,39.61-26.6C795.43,718.44,831.95,677.66,854.75,650.23Z"/><path class="cls-3" d="M861,569.11h-4.51a104.85,104.85,0,0,0-24.07,3.56c-13.54,3.56-35.38,24.57-47.78,34.92S715.76,671,686.46,691C660.31,708.73,512,717.2,479.76,718.82c42.15-5.44,161.69-21.24,177.81-26.91v0a65.21,65.21,0,0,1,15-7.5l0-.06c42.75-35.2,112.53-94.07,134-112.2a40.19,40.19,0,0,1,54.4-3.08Z"/><rect class="cls-4" x="814.77" y="444.56" width="27.27" height="227.33"/><path class="cls-5" d="M875.11,640.57,842,671.89V444.56l33.07-31.33Z"/><rect class="cls-6" x="814.77" y="444.56" width="27.27" height="48.1"/><rect class="cls-6" x="814.77" y="623.79" width="27.27" height="48.1"/><polygon points="842.04 623.79 875.11 592.46 875.11 640.57 842.04 671.89 842.04 623.79"/><polygon points="814.77 444.56 847.65 413.23 875.11 413.23 875.2 461.08 842.04 492.66 842.04 444.56 814.77 444.56"/><polygon class="cls-7" points="664.09 699.75 391.24 699.75 351.13 744.89 623.98 744.89 664.09 699.75"/><ellipse class="cls-8" cx="508.36" cy="718.04" rx="97.03" ry="18.29"/><ellipse class="cls-1" cx="505.29" cy="520.47" rx="219.45" ry="207.91"/><path class="cls-9" d="M657.32,671c-39.44,35.92-93,58-152.06,58s-112.56-22-152-58l.06-.51s138.4,80.53,303.88,0Z"/><path class="cls-1" d="M351.13,744.89l86.53,826.18s43.88,33.73,138.65,15.2l32.34-30.64,55.44-855.87L624,744.89Z"/><path class="cls-10" d="M624,744.89l-47.67,841.38,32.34-30.64,55.44-855.87Z"/><path class="cls-1" d="M874.17,652.47c0-20.27-17.34-36.7-38.74-36.7A39.56,39.56,0,0,0,806.63,628c-21.48,18.14-91.27,77-134,112.2l0,.06a64.21,64.21,0,0,0-15,7.52l0,0c-19.64,6.88-192.47,28.8-192.47,28.8l0,.27c-30.17,2.67-53.8,26.71-53.8,56,0,26.26,19,48.26,44.7,54.46v.07s63.15,32.15,250.88-32.22h0a64.13,64.13,0,0,0,32.57-16.77h0s120.57-107.26,133-175.06h0A34.91,34.91,0,0,0,874.17,652.47Z"/><path class="cls-2" d="M854.75,706c-14,23.75-34,48.54-53.4,70.18-31.71,35.29-61.86,62.11-61.86,62.11a64,64,0,0,1-32.55,16.76C519.19,919.47,456,887.34,456,887.34v-.09c-25.66-6.19-44.71-28.19-44.71-54.44,0-.57,0-1.17,0-1.74,3.07,9.88,9.1,23.63,21.95,34.7,27.17,23.41,67.84,18.48,121.94,12.14,37.05-4.34,63.28-11.12,88.38-17.82,39.91-10.65,58-19.18,69.58-25.42,14.25-7.67,26-15.84,39.61-26.6C795.43,774.26,831.95,733.48,854.75,706Z"/><path class="cls-3" d="M861,624.92h-4.51a104.85,104.85,0,0,0-24.07,3.56c-13.54,3.56-35.38,24.57-47.78,34.92s-68.84,63.42-98.14,83.38C660.31,764.54,512,773,479.76,774.63c42.15-5.44,161.69-21.24,177.81-26.91v0a65.21,65.21,0,0,1,15-7.5l0-.06c42.75-35.2,112.53-94.07,134-112.2a40.19,40.19,0,0,1,54.4-3.08Z"/></g></svg>