<svg xmlns="http://www.w3.org/2000/svg" viewBox="0 0 1080 1920"><defs><style>.cls-1{fill:#fbbd2d;}.cls-2,.cls-4,.cls-6,.cls-7{fill:#ce592c;}.cls-2{opacity:0.5;}.cls-3{fill:#fff;opacity:0.17;}.cls-5{fill:#b93c1a;}.cls-6{opacity:0.4;}.cls-7{opacity:0.49;}.cls-8{fill:#455a64;}.cls-9{fill:#35464c;}.cls-10{opacity:0.3;}</style></defs><title>svg_6</title><g id="arah_6"><path class="cls-1" d="M277.56,518.8c9.95-17.66,33.12-23.47,51.76-13a39.56,39.56,0,0,1,19.1,24.78c9.81,26.35,41.73,111.88,61.71,163.53l-.07,0a64.21,64.21,0,0,1,9.39,13.92l0,0c13.74,15.63,153.57,119.55,153.57,119.55l-.11.24c25,17.14,33.76,49.68,19.39,75.19-12.89,22.88-40.26,32.72-65.68,25.52l0,.06s-70.8-3-202.78-151.19h0a64.13,64.13,0,0,1-20.15-30.6h0s-52.42-152.63-30-217.79h0A34.91,34.91,0,0,1,277.56,518.8Z"/><path class="cls-2" d="M268.19,575c.54,27.55,5.8,59,12.09,87.36,10.31,46.31,23.42,84.48,23.42,84.48a64,64,0,0,0,20.14,30.58c132,148.21,202.79,151.21,202.79,151.21l0-.07c25.4,7.2,52.79-2.62,65.67-25.5.28-.5.57-1,.83-1.53-7.52,7.1-19.53,16.12-36.15,19.47-35.16,7.07-68.17-17.19-112.2-49.26-30.15-22-49.68-40.74-68.26-58.89C347,784,335.43,767.67,328.4,756.55c-8.65-13.67-14.92-26.58-21.46-42.62C286.41,663.55,274.6,610.1,268.19,575Z"/><path class="cls-3" d="M302.59,501.28l3.93,2.21a104.85,104.85,0,0,1,19.22,14.92c10,9.75,18.77,38.77,24.49,53.87s28.86,89,44.6,120.81c14.07,28.3,139.1,108.44,166.43,125.7-34.06-25.43-130.46-97.85-141.73-110.71v0a65.21,65.21,0,0,0-9.4-13.9l.05,0c-20-51.65-51.88-137.18-61.7-163.52a40.19,40.19,0,0,0-45.89-29.38Z"/><polygon class="cls-4" points="446.55 707.56 719.39 707.56 759.5 752.7 486.66 752.7 446.55 707.56"/><ellipse class="cls-5" cx="602.27" cy="725.85" rx="97.03" ry="18.29"/><ellipse class="cls-1" cx="605.35" cy="528.28" rx="219.45" ry="207.91"/><path class="cls-6" d="M453.32,678.79c39.44,35.92,93,58,152.06,58s112.56-22,152-58l-.06-.51s-138.4,80.53-303.88,0Z"/><path class="cls-1" d="M759.5,752.69,673,1578.88s-43.88,33.73-138.65,15.2L502,1563.43,446.55,707.56l40.11,45.13Z"/><path class="cls-7" d="M486.66,752.69l47.67,841.38L502,1563.43,446.55,707.56Z"/><rect class="cls-8" x="322.67" y="394.11" width="27.27" height="227.33" transform="translate(380.14 1115.23) rotate(-150.61)"/><path class="cls-9" d="M255.2,556.6l13.44,43.52L380.2,402l-13.44-43.53Z"/><rect class="cls-10" x="366.64" y="405.64" width="27.27" height="48.1" transform="translate(500.75 990.7) rotate(-150.61)"/><rect class="cls-10" x="278.69" y="561.8" width="27.27" height="48.1" transform="translate(259.52 1239.77) rotate(-150.61)"/><polygon points="292.25 558.21 278.81 514.68 255.2 556.6 268.64 600.12 292.25 558.21"/><polygon points="403.96 415.43 390.69 372 366.76 358.52 343.2 400.16 356.59 443.96 380.2 402.05 403.96 415.43"/><path class="cls-1" d="M257.94,604.93c5.89-19.39,27.26-30.08,47.73-23.86a39.56,39.56,0,0,1,24,20.06c15.28,23.6,64.95,100.21,95.63,146.31l-.06,0A64.21,64.21,0,0,1,437.43,759l0,0c16.79,12.29,175.8,83.49,175.8,83.49l-.06.26C641.29,854.09,656.91,884,648.4,912c-7.63,25.13-32.22,40.65-58.6,39.12v.07S520,963.57,359.09,847.42h0a64.13,64.13,0,0,1-26.29-25.51h0s-84.2-137.67-76.36-206.15h0A34.91,34.91,0,0,1,257.94,604.93Z"/><path class="cls-2" d="M261,661.83c6.49,26.79,18.42,56.33,30.7,82.67,20.09,43,41.14,77.41,41.14,77.41a64,64,0,0,0,26.28,25.5C520,963.56,589.77,951.17,589.77,951.17l0-.08c26.35,1.54,51-14,58.6-39.1.17-.55.34-1.12.48-1.67-5.81,8.56-15.58,20-31.09,26.83-32.8,14.51-70.28-2-120.2-23.82-34.19-14.92-57.32-29-79.39-42.73C383.11,848.8,368.28,835.38,359,826c-11.4-11.48-20.32-22.72-30.17-37C297.89,744.33,274.8,694.7,261,661.83Z"/><path class="cls-3" d="M278.59,582.4l4.32,1.31a104.85,104.85,0,0,1,22,10.4c11.92,7.34,26.71,33.79,35.57,47.3s47.44,80.69,69.68,108.3C430,774.31,569.41,825.5,599.83,836.44,561.08,819,451.29,769.13,437.51,759v0a65.21,65.21,0,0,0-12.19-11.54l0,0c-30.68-46.11-80.33-122.71-95.62-146.3a40.19,40.19,0,0,0-51.15-18.75Z"/></g></svg>