<svg xmlns="http://www.w3.org/2000/svg" viewBox="0 0 1080 1920"><defs><style>.cls-1{fill:#fbbd2d;}.cls-2,.cls-4,.cls-6,.cls-7{fill:#ce592c;}.cls-2{opacity:0.5;}.cls-3{fill:#fff;opacity:0.17;}.cls-5{fill:#b93c1a;}.cls-6{opacity:0.4;}.cls-7{opacity:0.49;}.cls-8{fill:#455a64;}.cls-9{fill:#35464c;}.cls-10{opacity:0.3;}</style></defs><title>svg_7</title><g id="arah_7"><path class="cls-1" d="M831.43,428c-9.95-17.66-33.12-23.47-51.76-13a39.56,39.56,0,0,0-19.1,24.78c-9.81,26.35-41.73,111.88-61.71,163.53l.07,0a64.21,64.21,0,0,0-9.39,13.92l0,0C675.76,632.89,535.92,736.8,535.92,736.8l.11.24c-25,17.14-33.76,49.68-19.39,75.19,12.89,22.88,40.26,32.72,65.68,25.52l0,.06s70.8-3,202.78-151.19h0A64.13,64.13,0,0,0,805.27,656h0s52.42-152.63,30-217.79h0A34.91,34.91,0,0,0,831.43,428Z"/><path class="cls-2" d="M840.8,484.19c-.54,27.55-5.8,59-12.09,87.36C818.39,617.86,805.29,656,805.29,656a64,64,0,0,1-20.14,30.58c-132,148.21-202.79,151.21-202.79,151.21l0-.07c-25.4,7.2-52.79-2.62-65.67-25.5-.28-.5-.57-1-.83-1.53,7.52,7.1,19.53,16.12,36.15,19.47,35.16,7.07,68.17-17.19,112.2-49.26,30.15-22,49.68-40.74,68.26-58.89,29.54-28.87,41.11-45.17,48.15-56.29,8.65-13.67,14.92-26.58,21.46-42.62C822.58,572.74,834.39,519.28,840.8,484.19Z"/><path class="cls-3" d="M806.4,410.46l-3.93,2.21a104.85,104.85,0,0,0-19.22,14.92c-10,9.75-18.77,38.77-24.49,53.87s-28.86,89-44.6,120.81c-14.07,28.3-139.1,108.44-166.43,125.7,34.06-25.43,130.46-97.85,141.73-110.71v0a65.21,65.21,0,0,1,9.4-13.9l-.05,0c20-51.65,51.88-137.18,61.7-163.52a40.19,40.19,0,0,1,45.89-29.38Z"/><polygon class="cls-4" points="662.44 616.74 389.6 616.74 349.49 661.88 622.33 661.88 662.44 616.74"/><ellipse class="cls-5" cx="506.72" cy="635.03" rx="97.03" ry="18.29"/><ellipse class="cls-1" cx="503.64" cy="437.46" rx="219.45" ry="207.91"/><path class="cls-6" d="M655.67,588c-39.44,35.92-93,58-152.06,58s-112.56-22-152-58l.06-.51s138.4,80.53,303.88,0Z"/><path class="cls-1" d="M349.49,661.88,436,1488.06s43.88,33.73,138.65,15.2L607,1472.62l55.44-855.87-40.11,45.13Z"/><path class="cls-7" d="M622.33,661.88l-47.67,841.38L607,1472.62l55.44-855.87Z"/><rect class="cls-8" x="759.06" y="303.29" width="27.27" height="227.33" transform="translate(-105.18 432.85) rotate(-29.39)"/><path class="cls-9" d="M853.79,465.78,840.35,509.3,728.79,311.23l13.44-43.53Z"/><rect class="cls-10" x="715.08" y="314.82" width="27.27" height="48.1" transform="translate(-72.52 401.22) rotate(-29.39)"/><rect class="cls-10" x="803.03" y="470.98" width="27.27" height="48.1" transform="translate(-137.83 464.48) rotate(-29.39)"/><polygon points="816.74 467.39 830.18 423.87 853.79 465.78 840.35 509.3 816.74 467.39"/><polygon points="705.03 324.61 718.3 281.18 742.23 267.7 765.79 309.35 752.39 353.14 728.79 311.23 705.03 324.61"/><path class="cls-1" d="M851,514.11c-5.89-19.39-27.26-30.08-47.73-23.86a39.56,39.56,0,0,0-24,20.06c-15.28,23.6-64.95,100.21-95.63,146.31l.06,0a64.21,64.21,0,0,0-12.18,11.56l0,0c-16.79,12.29-175.8,83.49-175.8,83.49l.06.26c-28.09,11.33-43.71,41.19-35.2,69.22,7.63,25.13,32.22,40.65,58.6,39.12v.07S589,872.75,749.89,756.6h0a64.13,64.13,0,0,0,26.29-25.51h0s84.2-137.67,76.36-206.15h0A34.91,34.91,0,0,0,851,514.11Z"/><path class="cls-2" d="M848,571c-6.49,26.79-18.42,56.33-30.7,82.67-20.09,43-41.14,77.41-41.14,77.41a64,64,0,0,1-26.28,25.5C589,872.74,519.22,860.35,519.22,860.35l0-.08c-26.35,1.54-51-14-58.6-39.1-.17-.55-.34-1.12-.48-1.67,5.81,8.56,15.58,20,31.09,26.83,32.8,14.51,70.28-2,120.2-23.82,34.19-14.92,57.32-29,79.39-42.73C725.88,758,740.71,744.56,750,735.23c11.4-11.48,20.32-22.72,30.17-37C811.1,653.52,834.19,603.88,848,571Z"/><path class="cls-3" d="M830.4,491.59l-4.32,1.31a104.85,104.85,0,0,0-22,10.4c-11.92,7.34-26.71,33.79-35.57,47.3s-47.44,80.69-69.68,108.3C679,683.49,539.58,734.68,509.16,745.62c38.75-17.46,148.54-67.31,162.32-77.42v0a65.21,65.21,0,0,1,12.19-11.54l0,0c30.68-46.11,80.33-122.71,95.62-146.3a40.19,40.19,0,0,1,51.15-18.75Z"/></g></svg>