<svg id="Layer_1" data-name="Layer 1" xmlns="http://www.w3.org/2000/svg" viewBox="0 0 1080 1028"><defs><style>.cls-1{fill:#0d7c6e;}.cls-2{fill:#38ef7d;}</style></defs><title>info_final</title><ellipse class="cls-1" cx="540" cy="514" rx="540" ry="514"/><ellipse class="cls-2" cx="560.57" cy="218.6" rx="76.01" ry="72.35"/><path class="cls-2" d="M626.71,1158.67a47.3,47.3,0,0,0-20.84,2.4h0a47.3,47.3,0,0,0-8.54,4l-38.73,18.22,61.94-337.19h0a46.77,46.77,0,0,0-45.81-57.93,47.26,47.26,0,0,0-20.46,4.62h0a47.21,47.21,0,0,0-8.05,4.91L434,866.12l-.2.12-.24.15-.06,0a47.28,47.28,0,0,0-6.26,4.62l-.09.07h0A46.73,46.73,0,0,0,458.38,953a47.31,47.31,0,0,0,18.1-3.58h0A47.2,47.2,0,0,0,488.79,942l20.89-12.68L453,1250.08a46.74,46.74,0,0,0-1.72,8.39c-.09.83-.16,1.66-.2,2.49h0a47.18,47.18,0,0,0,60.38,47.48h0a47.29,47.29,0,0,0,13-6.1l115.27-53.94h0a46.73,46.73,0,0,0-13.11-89.72Z" transform="translate(0 -433)"/></svg>