<?xml version="1.0" encoding="utf-8"?>
<!-- Generator: Adobe Illustrator 21.0.0, SVG Export Plug-In . SVG Version: 6.00 Build 0)  -->
<svg version="1.1" id="Layer_1" xmlns="http://www.w3.org/2000/svg" xmlns:xlink="http://www.w3.org/1999/xlink" x="0px" y="0px"
	 viewBox="0 0 1080 1920" style="enable-background:new 0 0 1080 1920;" xml:space="preserve">
<style type="text/css">
	.st0{fill:#FBBD2D;}
	.st1{opacity:0.5;fill:#CE592C;enable-background:new    ;}
	.st2{opacity:0.17;fill:#FFFFFF;enable-background:new    ;}
	.st3{fill:#CE592C;}
	.st4{fill:#B93C1A;}
	.st5{opacity:0.4;fill:#CE592C;enable-background:new    ;}
	.st6{opacity:0.49;fill:#CE592C;enable-background:new    ;}
	.st7{fill:#455A64;}
	.st8{fill:#35464C;}
	.st9{opacity:0.3;enable-background:new    ;}
</style>
<title>svg_7</title>
<g id="arah_7">
	<path class="st0" d="M831.4,428c-10-17.7-33.1-23.5-51.8-13c-9.5,5.3-16.4,14.2-19.1,24.8c-9.8,26.4-41.7,111.9-61.7,163.5h0.1
		c-3.7,4.2-6.9,8.9-9.4,13.9l0,0c-13.8,15.7-153.6,119.6-153.6,119.6l0.1,0.2c-25,17.1-33.8,49.7-19.4,75.2
		c12.9,22.9,40.3,32.7,65.7,25.5v0.1c0,0,70.8-3,202.8-151.2l0,0c9.6-8,16.6-18.7,20.2-30.6l0,0c0,0,52.4-152.6,30-217.8l0,0
		C834.5,434.6,833.2,431.2,831.4,428z"/>
	<path class="st1" d="M840.8,484.2c-0.5,27.5-5.8,59-12.1,87.4c-10.3,46.3-23.4,84.5-23.4,84.5c-3.6,11.9-10.6,22.6-20.1,30.6
		c-132,148.2-202.8,151.2-202.8,151.2v-0.1c-25.4,7.2-52.8-2.6-65.7-25.5c-0.3-0.5-0.6-1-0.8-1.5c7.5,7.1,19.5,16.1,36.2,19.5
		c35.2,7.1,68.2-17.2,112.2-49.3c30.2-22,49.7-40.7,68.3-58.9c29.5-28.9,41.1-45.2,48.2-56.3c8.7-13.7,14.9-26.6,21.5-42.6
		C822.6,572.7,834.4,519.3,840.8,484.2z"/>
	<path class="st2" d="M806.4,410.5l-3.9,2.2c-7,4.2-13.4,9.2-19.2,14.9c-10,9.8-18.8,38.8-24.5,53.9s-28.9,89-44.6,120.8
		C700.1,630.6,575.1,710.7,547.7,728c34.1-25.4,130.5-97.8,141.7-110.7l0,0c2.5-5,5.7-9.7,9.4-13.9h0c20-51.7,51.9-137.2,61.7-163.5
		C765.8,419.6,785.8,406.8,806.4,410.5L806.4,410.5z"/>
	<polygon class="st3" points="662.4,616.7 389.6,616.7 349.5,661.9 622.3,661.9 	"/>
	<ellipse class="st4" cx="506.7" cy="635" rx="97" ry="18.3"/>
	<ellipse class="st0" cx="503.6" cy="437.5" rx="219.5" ry="207.9"/>
	<path class="st5" d="M655.7,588c-39.4,35.9-93,58-152.1,58s-112.6-22-152-58l0.1-0.5c0,0,138.4,80.5,303.9,0L655.7,588z"/>
	<path class="st0" d="M349.5,661.9l86.5,826.2c0,0,43.9,33.7,138.7,15.2l32.3-30.6l55.4-855.9l-40.1,45.1H349.5z"/>
	<path class="st6" d="M622.3,661.9l-47.7,841.4l32.3-30.6l55.4-855.9L622.3,661.9z"/>
	
		<rect x="759.1" y="303.3" transform="matrix(0.8713 -0.4908 0.4908 0.8713 -105.169 432.8596)" class="st7" width="27.3" height="227.3"/>
	<path class="st8" d="M853.8,465.8l-13.4,43.5L728.8,311.2l13.4-43.5L853.8,465.8z"/>
	
		<rect x="715.1" y="314.8" transform="matrix(0.8713 -0.4908 0.4908 0.8713 -72.5103 401.227)" class="st9" width="27.3" height="48.1"/>
	
		<rect x="803" y="471" transform="matrix(0.8713 -0.4908 0.4908 0.8713 -137.8263 464.4898)" class="st9" width="27.3" height="48.1"/>
	<polygon points="816.7,467.4 830.2,423.9 853.8,465.8 840.3,509.3 	"/>
	<polygon points="705,324.6 718.3,281.2 742.2,267.7 765.8,309.4 752.4,353.1 728.8,311.2 	"/>
	<path class="st0" d="M851,514.1c-5.9-19.4-27.3-30.1-47.7-23.9c-10.4,3.1-19.1,10.4-24,20.1c-15.3,23.6-65,100.2-95.6,146.3h0.1
		c-4.5,3.3-8.6,7.2-12.2,11.6l0,0c-16.8,12.3-175.8,83.5-175.8,83.5l0.1,0.3c-28.1,11.3-43.7,41.2-35.2,69.2
		c7.6,25.1,32.2,40.7,58.6,39.1v0.1c0,0,69.8,12.4,230.7-103.7l0,0c11.1-5.8,20.2-14.6,26.3-25.5l0,0c0,0,84.2-137.7,76.4-206.2l0,0
		C852.6,521.3,852.1,517.6,851,514.1z"/>
	<path class="st1" d="M848,571c-6.5,26.8-18.4,56.3-30.7,82.7c-20.1,43-41.1,77.4-41.1,77.4c-6.1,10.9-15.2,19.7-26.3,25.5
		C589,872.7,519.2,860.3,519.2,860.3v-0.1c-26.4,1.5-51-14-58.6-39.1c-0.2-0.5-0.3-1.1-0.5-1.7c5.8,8.6,15.6,20,31.1,26.8
		c32.8,14.5,70.3-2,120.2-23.8c34.2-14.9,57.3-29,79.4-42.7c35.1-21.8,49.9-35.2,59.2-44.6c11.4-11.5,20.3-22.7,30.2-37
		C811.1,653.5,834.2,603.9,848,571z"/>
	<path class="st2" d="M830.4,491.6l-4.3,1.3c-7.7,2.6-15.1,6.1-22,10.4c-11.9,7.3-26.7,33.8-35.6,47.3s-47.4,80.7-69.7,108.3
		c-19.8,24.6-159.3,75.8-189.7,86.7c38.8-17.5,148.5-67.3,162.3-77.4l0,0c3.5-4.4,7.6-8.2,12.2-11.5l0,0
		c30.7-46.1,80.3-122.7,95.6-146.3C788.9,491.7,811.1,483.6,830.4,491.6L830.4,491.6z"/>
</g>
</svg>
