<svg id="Layer_1" data-name="Layer 1" xmlns="http://www.w3.org/2000/svg" viewBox="0 0 1080 664"><defs><style>.cls-1{fill:#83888c;opacity:0.2;}.cls-2{fill:#fff;}.cls-3{fill:#4797d2;}.cls-4{fill:#bed136;}.cls-5{fill:#656566;}</style></defs><title>scene_final</title><path class="cls-1" d="M1079.81,960C483.1,213,0,960,0,960H.19s483.1,747,1079.81,0Z" transform="translate(0 -628)"/><ellipse class="cls-2" cx="540" cy="332" rx="231.72" ry="264.27"/><path class="cls-2" d="M718.61,960c0,112.5-80,203.71-178.62,203.71a156.08,156.08,0,0,1-33.9-3.7c-66.73-14.57-120.24-71.54-138.2-145.34A229.25,229.25,0,0,1,361.37,960c0-112.5,80-203.71,178.62-203.71S718.61,847.5,718.61,960Z" transform="translate(0 -628)"/><path class="cls-3" d="M718.63,963.17c0,112.51-80,203.72-178.62,203.72a158.51,158.51,0,0,1-33.9-3.66V1080.5l.83-2.88a95.83,95.83,0,0,0,33.05,5.86c59.81,0,108.28-55.28,108.28-123.48,0-36.21-13.66-68.76-35.42-91.35l45.06-58.45h0C695.18,847.56,718.63,902.23,718.63,963.17Z" transform="translate(0 -628)"/><path class="cls-4" d="M506.1,1077.3v85.93c-66.72-14.57-120.24-71.55-138.2-145.34l0,0,66.72-26,.75.27C444.87,1032.28,471.67,1064.37,506.1,1077.3Z" transform="translate(0 -628)"/><ellipse class="cls-5" cx="540" cy="332" rx="108.28" ry="123.49"/></svg>