<?xml version="1.0" encoding="utf-8"?>
<!-- Generator: Adobe Illustrator 21.0.0, SVG Export Plug-In . SVG Version: 6.00 Build 0)  -->
<svg version="1.1" xmlns="http://www.w3.org/2000/svg" xmlns:xlink="http://www.w3.org/1999/xlink" x="0px" y="0px"
	 viewBox="0 0 1080 1920" style="enable-background:new 0 0 1080 1920;" xml:space="preserve">
<style type="text/css">
	.st0{fill:#FABD2C;}
	.st1{opacity:0.5;fill:#E3892C;}
	.st2{opacity:0.83;fill:#E3892C;}
</style>
<g id="tangan_x5F_kiri">
	<g>
		<path class="st0" d="M595.4,1032.6c84,17.4,150,14.1,190.7,9.1c35.7-4.4,59.5-11,81.5-27.7c33.6-25.4,45.7-60.9,50.1-77.5
			c4.1-63.6,8.2-127.3,12.4-190.9c-26-1-52.1-2-78.1-3c-3.4,17.8-21.2,109.4-45.2,162c-6.4,13.9-15.1,28.5-31.3,35.1
			c-11.3,4.6-22.2,3.8-29.2,2.5c-4.6-0.5-11.8-1.1-20.5-1.6c-17.4-1-30.5-0.7-31.7-0.7C674.1,940.7,635.2,978.1,595.4,1032.6z"/>
		
			<ellipse transform="matrix(0.8491 -0.5282 0.5282 0.8491 -261.3713 583.5604)" class="st0" cx="890.7" cy="749.3" rx="40.7" ry="37.8"/>
		
			<ellipse transform="matrix(0.8491 -0.5282 0.5282 0.8491 -390.6377 583.0244)" class="st0" cx="825.2" cy="975.3" rx="58" ry="53.9"/>
	</g>
</g>
<g id="tangan_x5F_kanan">
	<g>
		<path class="st0" d="M427.8,940.1c-59.1,55.2-91.2,106.6-108.4,139.6c-15.1,29-22,50-19.5,74.4c3.8,37.2,27.6,63.1,39.3,74.2
			c51.9,33,103.7,65.9,155.6,98.9c14.6-19.2,29.2-38.4,43.8-57.5c-13.3-10.9-81.7-67.3-113.7-110.1c-8.5-11.4-17.4-25.4-13.3-40.1
			c3.5-12.5,13-19.5,16.3-21.6C427.8,1045.3,427.8,992.7,427.8,940.1z"/>
		<ellipse class="st0" cx="512.4" cy="1295.9" rx="37.8" ry="36.2"/>
		<ellipse class="st0" cx="355.2" cy="1140.4" rx="53.9" ry="51.5"/>
	</g>
</g>
<g id="tubuh">
	<g>
		<path class="st0" d="M801.4,658.4c0,78.8-33.8,149.1-86.7,195c-39.9,34.7-90.7,55.4-146,55.4c-55.4,0-106.3-20.9-146.3-55.7
			c-0.1-0.1-0.2-0.1-0.2-0.1c-52.6-46-86.2-116.1-86.2-194.6c0-138.3,104.2-250.5,232.7-250.5C697.3,407.9,801.4,520.1,801.4,658.4z
			"/>
		<path class="st1" d="M714.8,853.5c-39.9,34.7-90.7,55.4-146,55.4c-55.4,0-106.3-20.9-146.3-55.7
			C427.8,856.4,557.1,933.5,714.8,853.5z"/>
	</g>
	<g>
		<rect x="427.8" y="940.1" class="st0" width="281.8" height="290.9"/>
		<path class="st0" d="M458.1,1600h81.2v-235.8c0,0,6.9-19.2,22.6-23.7h13.7c15.7,4.5,22.6,23.7,22.6,23.7V1600h81.2l30.3-369
			l-281.8,0L458.1,1600z"/>
	</g>
	<polygon class="st2" points="576.5,940.1 668.7,940.1 622.6,1006.6 576.5,1073.1 530.5,1006.6 484.4,940.1 	"/>
</g>
</svg>
