<?xml version="1.0" encoding="UTF-8"?>
<!DOCTYPE svg PUBLIC "-//W3C//DTD SVG 1.1//EN" "http://www.w3.org/Graphics/SVG/1.1/DTD/svg11.dtd">
<!-- Creator: CorelDRAW -->
<svg xmlns="http://www.w3.org/2000/svg" xml:space="preserve" width="70mm" height="70mm" style="shape-rendering:geometricPrecision; text-rendering:geometricPrecision; image-rendering:optimizeQuality; fill-rule:evenodd; clip-rule:evenodd"
viewBox="0 0 70 70"
 xmlns:xlink="http://www.w3.org/1999/xlink"
 version="1.1"
 enable-background="new 0 0 200 200">
 <defs>
  <style type="text/css">
   <![CDATA[
    .str0 {stroke:white;stroke-width:0.2646}
    .fil2 {fill:white}
    .fil3 {fill:url(#id0)}
    .fil1 {fill:url(#id1)}
    .fil0 {fill:url(#id2)}
   ]]>
  </style>
  <linearGradient id="id0" gradientUnits="userSpaceOnUse" x1="16.5326" y1="19.4938" x2="30.8678" y2="19.4938">
   <stop offset="0" style="stop-color:#24A3FC"/>
   <stop offset="1" style="stop-color:#FFBA0D"/>
  </linearGradient>
  <linearGradient id="id1" gradientUnits="userSpaceOnUse" x1="38.6222" y1="50.0878" x2="52.2731" y2="50.0878">
   <stop offset="0" style="stop-color:#24A3FC"/>
   <stop offset="1" style="stop-color:#FFBA0D"/>
  </linearGradient>
  <linearGradient id="id2" gradientUnits="userSpaceOnUse" x1="18.2193" y1="41.9565" x2="52.3831" y2="41.9565">
   <stop offset="0" style="stop-color:#24A3FC"/>
   <stop offset="1" style="stop-color:#FFBA0D"/>
  </linearGradient>
 </defs>
 <g id="Layer_x0020_1">
  <metadata id="CorelCorpID_0Corel-Layer"/>
  <g id="_101768584">
   <g id="_103856672">
    <g>
     <path id="_104109480" class="fil0" d="M26.3865 27.374c0,0 0.3448,-0.063 0.9951,-0.1558 0.6503,-0.0876 1.6052,-0.2278 2.8268,-0.3418 1.2213,-0.1185 2.708,-0.25 4.4215,-0.3172 1.714,-0.0677 3.6539,-0.0889 5.7825,0.0341 2.128,0.1402 4.4484,0.3702 6.9125,1.1531 0.616,0.2021 1.2404,0.4466 1.8632,0.7784 0.6215,0.3323 1.2499,0.7467 1.8232,1.3256 0.2807,0.299 0.5509,0.6286 0.7705,1.016 0.2135,0.3871 0.3966,0.8133 0.4871,1.2634 0.0299,0.1114 0.0447,0.2238 0.0606,0.3366l0.0228 0.1696 0.0106 0.0849 0.0069 0.1349 0.0101 0.2421c0.0032,0.0296 0.0005,0.1016 -0.0029,0.1693l-0.0114 0.2006 -0.0159 0.2006c-0.0071,0.064 -0.0183,0.1175 -0.0278,0.1767 -0.0212,0.1156 -0.0386,0.2328 -0.0669,0.3469 -0.0614,0.2267 -0.1265,0.4546 -0.2196,0.667 -0.1754,0.431 -0.4101,0.8255 -0.6752,1.1676 -0.2617,0.3514 -0.554,0.6503 -0.8559,0.9231 -0.6067,0.5387 -1.2512,0.9641 -1.9039,1.3327 -1.3076,0.7284 -2.6551,1.2504 -4.0151,1.6965 -2.7175,0.8909 -5.4912,1.4825 -8.2444,2.0421 -2.7551,0.5398 -5.501,1.0213 -8.1365,1.57 -0.6575,0.1397 -1.3062,0.2873 -1.9399,0.4477 -0.6342,0.1561 -1.2541,0.3262 -1.8389,0.5199 -0.5831,0.1916 -1.1401,0.4135 -1.5692,0.6578 -0.5366,0.3241 -0.917,0.5919 -1.2703,0.9395 -0.1738,0.1659 -0.2992,0.3373 -0.4133,0.5016 -0.0897,0.1672 -0.1791,0.3254 -0.2082,0.4855 -0.0318,0.0786 -0.0238,0.1614 -0.0442,0.2421 0.0079,0.0852 -0.0114,0.1667 0.0079,0.258 0.0053,0.1762 0.068,0.3725 0.1341,0.5739 0.159,0.4067 0.4302,0.8358 0.762,1.2404 0.3323,0.4061 0.7231,0.7906 1.1335,1.156 0.8263,0.7292 1.7423,1.3645 2.6628,1.9296 0.2302,0.1418 0.4609,0.2802 0.6927,0.412l0.1736 0.0987 0.0865 0.0495c0.0352,0.0175 -0.0238,-0.0101 -0.0093,-0.0029l0.023 0.0116 0.046 0.0233c0.1225,0.0622 0.2442,0.1246 0.3657,0.1863 0.4961,0.2686 0.9342,0.4347 1.3795,0.6403 1.8653,0.7572 3.6986,1.2764 5.3258,1.7015 1.6327,0.4183 3.0763,0.7443 4.2698,0.9943 1.1972,0.2463 2.1381,0.4397 2.7794,0.5718 0.6435,0.1302 0.9842,0.2133 0.9842,0.2133 0,0 -0.3498,-0.0111 -1.0054,-0.032 -0.6554,-0.0259 -1.619,-0.0434 -2.8429,-0.127 -1.2245,-0.0796 -2.7141,-0.1871 -4.4188,-0.4154 -1.7052,-0.2323 -3.6264,-0.5527 -5.7137,-1.174 -0.5286,-0.1754 -1.1009,-0.359 -1.5838,-0.5683 -0.1262,-0.0511 -0.2532,-0.1024 -0.3805,-0.154l-0.0479 -0.019 -0.0238 -0.0098 -0.0556 -0.0257 -0.0974 -0.0447 -0.1955 -0.0902c-0.2617,-0.1199 -0.5233,-0.2474 -0.7858,-0.3794 -1.0501,-0.5292 -2.1056,-1.1565 -3.1414,-1.9378 -0.5175,-0.3924 -1.0242,-0.8329 -1.5047,-1.3502 -0.4776,-0.5183 -0.9364,-1.1155 -1.2867,-1.8619 -0.1635,-0.3821 -0.3156,-0.7882 -0.3799,-1.2459 -0.0455,-0.2217 -0.0437,-0.462 -0.0545,-0.6951 0.0169,-0.2363 0.0196,-0.4776 0.0749,-0.7099 0.0781,-0.4762 0.2641,-0.9112 0.4723,-1.3171 0.2236,-0.3884 0.4797,-0.7482 0.7617,-1.052 0.5437,-0.6054 1.2343,-1.1258 1.8256,-1.4994 0.7128,-0.4366 1.4012,-0.7218 2.086,-0.9763 1.3676,-0.5035 2.7255,-0.8522 4.0915,-1.1721 2.7257,-0.6414 5.4756,-1.1277 8.1912,-1.678 2.7149,-0.5321 5.4078,-1.1028 7.9317,-1.8592 1.2536,-0.3884 2.4691,-0.825 3.5346,-1.3705 1.0549,-0.5403 1.9529,-1.2451 2.2672,-1.9275 0.0463,-0.0841 0.0704,-0.1709 0.1029,-0.2556 0.0138,-0.0431 0.0193,-0.0873 0.0315,-0.1304 0.005,-0.0206 0.0135,-0.046 0.0161,-0.0624 0.0008,-0.014 0.0026,-0.0278 0.005,-0.0415 0.0026,-0.0138 0.0056,-0.0275 0.0098,-0.0415 0.004,-0.0127 -0.0069,-0.0217 -0.0087,-0.0728l-0.0155 -0.2423 0 -0.0302c0,-0.0722 0.0212,0.0635 0.0196,0.0442l0.005 -0.0349 -0.0021 -0.0704c-0.0037,-0.0468 -0.0016,-0.0947 -0.014,-0.1386 -0.0569,-0.3609 -0.2257,-0.7027 -0.5093,-1.0454 -0.2926,-0.3366 -0.6892,-0.6514 -1.1361,-0.9252 -0.4474,-0.2746 -0.9446,-0.5088 -1.4526,-0.7205 -1.0221,-0.4207 -2.1032,-0.7168 -3.161,-0.9716 -1.062,-0.2514 -2.1116,-0.4368 -3.1271,-0.5964 -2.0328,-0.3141 -3.9285,-0.4985 -5.6129,-0.6353 -1.6851,-0.131 -3.1626,-0.2222 -4.381,-0.2752 -1.2181,-0.0471 -2.1786,-0.0918 -2.8334,-0.1048 -0.6559,-0.0168 -1.0057,-0.0255 -1.0057,-0.0255z"/>
    </g>
    <path id="_104109384" class="fil1 str0" d="M45.5432 58.0347c0,0 4.3722,-5.0191 5.5512,-7.0723 1.1787,-2.0534 0.0759,-6.0082 -2.7757,-7.4147 -2.8519,-1.4068 -5.5515,-0.114 -6.4643,0.5702 -0.9125,0.6845 -3.2322,2.9472 -1.6727,7.0535 -0.0001,0 0.5794,1.6399 5.3615,6.8633z"/>
    <circle id="_104109312" class="fil2" cx="45.6154" cy="48.5848" r="2.8231"/>
    <path id="_103757288" class="fil3 str0" d="M23.8 27.8391c0,0 4.5918,-5.2708 5.8298,-7.4269 1.238,-2.1561 0.0799,-6.3087 -2.9149,-7.7864 -2.9948,-1.4774 -5.8298,-0.1196 -6.7882,0.599 -0.9586,0.7189 -3.3941,3.0946 -1.7571,7.4073 0,-0.0002 0.6091,1.7217 5.6304,7.207z"/>
    <circle id="_103856840" class="fil2" cx="23.8762" cy="17.9159" r="2.9646"/>
   </g>
  </g>
 </g>
</svg>
