<?xml version="1.0" encoding="UTF-8"?>
<!DOCTYPE svg PUBLIC "-//W3C//DTD SVG 1.1//EN" "http://www.w3.org/Graphics/SVG/1.1/DTD/svg11.dtd">
<!-- Creator: CorelDRAW -->
<svg xmlns="http://www.w3.org/2000/svg" xml:space="preserve" width="70mm" height="70mm" style="shape-rendering:geometricPrecision; text-rendering:geometricPrecision; image-rendering:optimizeQuality; fill-rule:evenodd; clip-rule:evenodd"
viewBox="0 0 70 70"
 xmlns:xlink="http://www.w3.org/1999/xlink"
 version="1.1"
 enable-background="new 0 0 200 200">
 <defs>
  <style type="text/css">
   <![CDATA[
    .str0 {stroke:#24A3FC;stroke-width:1.3229}
    .fil1 {fill:none}
    .fil3 {fill:url(#id0)}
    .fil2 {fill:url(#id1)}
    .fil0 {fill:url(#id2)}
   ]]>
  </style>
  <linearGradient id="id0" gradientUnits="userSpaceOnUse" x1="24.3732" y1="26.6106" x2="28.3032" y2="26.6106">
   <stop offset="0" style="stop-color:#24A3FC"/>
   <stop offset="1" style="stop-color:#FFBA0D"/>
  </linearGradient>
  <linearGradient id="id1" gradientUnits="userSpaceOnUse" x1="23.6185" y1="31.2248" x2="46.3981" y2="31.2248">
   <stop offset="0" style="stop-color:#24A3FC"/>
   <stop offset="1" style="stop-color:#FFBA0D"/>
  </linearGradient>
  <linearGradient id="id2" gradientUnits="userSpaceOnUse" x1="8.529" y1="39.6101" x2="60.1995" y2="39.6101">
   <stop offset="0" style="stop-color:#24A3FC"/>
   <stop offset="1" style="stop-color:#FFBA0D"/>
  </linearGradient>
 </defs>
 <g id="Layer_x0020_1">
  <metadata id="CorelCorpID_0Corel-Layer"/>
  <g id="_126524912">
   <g id="_102732568">
    <path id="_127972720" class="fil0" d="M20.4689 33.2377l0 1.0705c0,0 -11.9399,3.3647 -2.1606,8.1058 0,0 6.4368,2.8041 17.4495,2.5487 0,0 14.1862,-0.1527 18.6187,-4.1802 0,0 3.62,-2.4979 -1.9095,-5.3017 0,0 -0.9546,2.9311 -0.9546,3.0075l-2.0542 -4.8429 4.2053 -2.2429 -0.8215 2.8546c0,0 7.3575,2.8043 4.9813,6.8823 0,0 -2.8326,5.9645 -22.1631,6.3982 0,0 -10.6474,0.2802 -18.2787,-2.8295 0,0 -7.5271,-2.5487 -5.2422,-6.9839 0,0 1.4504,-2.753 8.3296,-4.4865z"/>
    <path id="_127978888" class="fil1 str0" d="M47.8533 38.9098c0,0.513 -0.2863,1.2734 -0.8578,1.2734l-23.895 0c-0.5715,0 -1.1763,-0.7601 -1.1763,-1.2734l-0.0001 -15.6588c0,-0.5138 0.6048,-0.7951 1.1763,-0.7951l23.8951 0c0.5715,0 0.8578,0.2813 0.8578,0.7951l0 15.6588z"/>
    <path id="_127978528" class="fil2" d="M23.6185 38.3613l5.5375 -8.6654c0,0 0.6969,-1.56 1.6682,0.0045l1.7402 2.6331c0,0 0.7731,0.9964 1.4851,-0.2834 0.7123,-1.2798 4.5294,-6.6826 4.5294,-6.6826 0,0 1.029,-1.2793 1.6118,0.0003 0.5823,1.2796 6.2074,9.101 6.2074,9.101l0 3.8751 -22.7796 0.0174z"/>
    <ellipse id="_127981240" class="fil3" cx="26.3382" cy="26.6106" rx="1.965" ry="2.192"/>
   </g>
  </g>
 </g>
</svg>
