<?xml version="1.0" encoding="utf-8"?>
<!-- Generator: Adobe Illustrator 16.0.0, SVG Export Plug-In . SVG Version: 6.00 Build 0)  -->
<!DOCTYPE svg PUBLIC "-//W3C//DTD SVG 1.1//EN" "http://www.w3.org/Graphics/SVG/1.1/DTD/svg11.dtd">
<svg version="1.1" id="Layer_1" xmlns="http://www.w3.org/2000/svg" xmlns:xlink="http://www.w3.org/1999/xlink" x="0px" y="0px"
	 width="200px" height="200px" viewBox="0 0 200 200" enable-background="new 0 0 200 200" xml:space="preserve">
<g>
	<linearGradient id="SVGID_1_" gradientUnits="userSpaceOnUse" x1="40.5078" y1="122.9629" x2="171.3311" y2="122.9629">
		<stop  offset="0" style="stop-color:#CCE0F4"/>
		<stop  offset="0" style="stop-color:#C3DCEF"/>
		<stop  offset="0" style="stop-color:#A9D3E1"/>
		<stop  offset="0" style="stop-color:#80C3CA"/>
		<stop  offset="0" style="stop-color:#47ADAB"/>
		<stop  offset="0" style="stop-color:#11998E"/>
		<stop  offset="1" style="stop-color:#38EF7D"/>
	</linearGradient>
	<path fill="url(#SVGID_1_)" d="M72.275,67.784c0,0,1.303-0.238,3.761-0.589c2.458-0.331,6.067-0.861,10.684-1.292
		c4.616-0.448,10.235-0.945,16.711-1.199c6.478-0.256,13.81-0.336,21.855,0.129c8.043,0.53,16.813,1.399,26.126,4.358
		c2.328,0.764,4.688,1.688,7.042,2.942c2.349,1.256,4.724,2.822,6.891,5.01c1.061,1.13,2.082,2.376,2.912,3.84
		c0.807,1.463,1.499,3.074,1.841,4.775c0.113,0.421,0.169,0.846,0.229,1.272l0.086,0.641l0.04,0.321l0.026,0.51l0.038,0.915
		c0.012,0.112,0.002,0.384-0.011,0.64l-0.043,0.758l-0.06,0.758c-0.027,0.242-0.069,0.444-0.105,0.668
		c-0.08,0.437-0.146,0.88-0.253,1.311c-0.232,0.857-0.478,1.718-0.83,2.521c-0.663,1.629-1.55,3.12-2.552,4.413
		c-0.989,1.328-2.094,2.458-3.235,3.489c-2.293,2.036-4.729,3.644-7.196,5.037c-4.942,2.753-10.035,4.726-15.175,6.412
		c-10.271,3.367-20.754,5.603-31.16,7.718c-10.413,2.04-20.791,3.86-30.752,5.934c-2.485,0.528-4.937,1.086-7.332,1.692
		c-2.397,0.59-4.74,1.233-6.95,1.965c-2.204,0.724-4.309,1.563-5.931,2.486c-2.028,1.225-3.466,2.237-4.801,3.551
		c-0.657,0.627-1.131,1.275-1.562,1.896c-0.339,0.632-0.677,1.23-0.787,1.835c-0.12,0.297-0.09,0.61-0.167,0.915
		c0.03,0.322-0.043,0.63,0.03,0.975c0.02,0.666,0.257,1.408,0.507,2.169c0.601,1.537,1.626,3.159,2.88,4.688
		c1.256,1.535,2.733,2.988,4.284,4.369c3.123,2.756,6.585,5.157,10.064,7.293c0.87,0.536,1.742,1.059,2.618,1.557l0.656,0.373
		l0.327,0.187c0.133,0.066-0.09-0.038-0.035-0.011l0.087,0.044l0.174,0.088c0.463,0.235,0.923,0.471,1.382,0.704
		c1.875,1.015,3.531,1.643,5.214,2.42c7.05,2.862,13.979,4.824,20.129,6.431c6.171,1.581,11.627,2.813,16.138,3.758
		c4.525,0.931,8.081,1.662,10.505,2.161c2.432,0.492,3.72,0.806,3.72,0.806s-1.322-0.042-3.8-0.121
		c-2.477-0.098-6.119-0.164-10.745-0.48c-4.628-0.301-10.258-0.707-16.701-1.57c-6.445-0.878-13.706-2.089-21.595-4.437
		c-1.998-0.663-4.161-1.357-5.986-2.148c-0.477-0.193-0.957-0.387-1.438-0.582l-0.181-0.072l-0.09-0.037l-0.21-0.097l-0.368-0.169
		l-0.739-0.341c-0.989-0.453-1.978-0.935-2.97-1.434c-3.969-2-7.958-4.371-11.873-7.324c-1.956-1.483-3.871-3.148-5.687-5.103
		c-1.805-1.959-3.539-4.216-4.863-7.037c-0.618-1.444-1.193-2.979-1.436-4.709c-0.172-0.838-0.165-1.746-0.206-2.627
		c0.064-0.893,0.074-1.805,0.283-2.683c0.295-1.8,0.998-3.444,1.785-4.978c0.845-1.468,1.813-2.828,2.879-3.976
		c2.055-2.288,4.665-4.255,6.9-5.667c2.694-1.65,5.296-2.728,7.884-3.69c5.169-1.903,10.301-3.221,15.464-4.43
		c10.302-2.424,20.695-4.262,30.959-6.342c10.261-2.011,20.439-4.168,29.978-7.027c4.738-1.468,9.332-3.118,13.359-5.18
		c3.987-2.042,7.381-4.706,8.569-7.285c0.175-0.318,0.266-0.646,0.389-0.966c0.052-0.163,0.073-0.33,0.119-0.493
		c0.019-0.078,0.051-0.174,0.061-0.236c0.003-0.053,0.01-0.105,0.019-0.157c0.01-0.052,0.021-0.104,0.037-0.157
		c0.015-0.048-0.026-0.082-0.033-0.275L160,88.684v-0.114c0-0.273,0.08,0.24,0.074,0.167l0.019-0.132l-0.008-0.266
		c-0.014-0.177-0.006-0.358-0.053-0.524c-0.215-1.364-0.853-2.656-1.925-3.951c-1.106-1.272-2.605-2.462-4.294-3.497
		c-1.691-1.038-3.57-1.923-5.49-2.723c-3.863-1.59-7.949-2.709-11.947-3.672c-4.014-0.95-7.981-1.651-11.819-2.254
		c-7.683-1.187-14.848-1.884-21.214-2.401c-6.369-0.495-11.953-0.84-16.558-1.04c-4.604-0.178-8.234-0.347-10.709-0.396
		C73.597,67.817,72.275,67.784,72.275,67.784z"/>
</g>
<linearGradient id="SVGID_2_" gradientUnits="userSpaceOnUse" x1="122.4277" y1="155.0996" x2="167.4219" y2="155.0996">
	<stop  offset="0" style="stop-color:#CCE0F4"/>
	<stop  offset="0" style="stop-color:#C3DCEF"/>
	<stop  offset="0" style="stop-color:#A9D3E1"/>
	<stop  offset="0" style="stop-color:#80C3CA"/>
	<stop  offset="0" style="stop-color:#47ADAB"/>
	<stop  offset="0" style="stop-color:#11998E"/>
	<stop  offset="1" style="stop-color:#38EF7D"/>
</linearGradient>
<linearGradient id="SVGID_3_" gradientUnits="userSpaceOnUse" x1="121.9277" y1="155.2246" x2="167.9219" y2="155.2246">
	<stop  offset="0" style="stop-color:#CCE0F4"/>
	<stop  offset="0" style="stop-color:#C3DCEF"/>
	<stop  offset="0" style="stop-color:#A9D3E1"/>
	<stop  offset="0" style="stop-color:#80C3CA"/>
	<stop  offset="0" style="stop-color:#47ADAB"/>
	<stop  offset="0" style="stop-color:#11998E"/>
	<stop  offset="1" style="stop-color:#38EF7D"/>
</linearGradient>
<path fill="url(#SVGID_2_)" stroke="url(#SVGID_3_)" stroke-miterlimit="10" d="M144.678,183.667c0,0,16.525-18.97,20.981-26.73
	c4.455-7.761,0.287-22.708-10.491-28.024c-10.779-5.317-20.982-0.431-24.432,2.155c-3.449,2.587-12.216,11.139-6.322,26.659
	C124.414,157.727,126.604,163.925,144.678,183.667z"/>
<circle fill="#FFFFFF" cx="144.951" cy="147.951" r="10.67"/>
<linearGradient id="SVGID_4_" gradientUnits="userSpaceOnUse" x1="39.1343" y1="39.543" x2="86.3833" y2="39.543">
	<stop  offset="0" style="stop-color:#CCE0F4"/>
	<stop  offset="0" style="stop-color:#C3DCEF"/>
	<stop  offset="0" style="stop-color:#A9D3E1"/>
	<stop  offset="0" style="stop-color:#80C3CA"/>
	<stop  offset="0" style="stop-color:#47ADAB"/>
	<stop  offset="0" style="stop-color:#11998E"/>
	<stop  offset="1" style="stop-color:#38EF7D"/>
</linearGradient>
<linearGradient id="SVGID_5_" gradientUnits="userSpaceOnUse" x1="38.6343" y1="39.668" x2="86.8833" y2="39.668">
	<stop  offset="0" style="stop-color:#CCE0F4"/>
	<stop  offset="0" style="stop-color:#C3DCEF"/>
	<stop  offset="0" style="stop-color:#A9D3E1"/>
	<stop  offset="0" style="stop-color:#80C3CA"/>
	<stop  offset="0" style="stop-color:#47ADAB"/>
	<stop  offset="0" style="stop-color:#11998E"/>
	<stop  offset="1" style="stop-color:#38EF7D"/>
</linearGradient>
<path fill="url(#SVGID_4_)" stroke="url(#SVGID_5_)" stroke-miterlimit="10" d="M62.499,69.542c0,0,17.355-19.921,22.034-28.07
	s0.302-23.844-11.017-29.429c-11.319-5.584-22.034-0.452-25.656,2.264c-3.623,2.717-12.828,11.696-6.641,27.996
	C41.219,42.302,43.521,48.81,62.499,69.542z"/>
<circle fill="#FFFFFF" cx="62.787" cy="32.037" r="11.205"/>
</svg>
