<?xml version="1.0" encoding="utf-8"?>
<!-- Generator: Adobe Illustrator 16.0.0, SVG Export Plug-In . SVG Version: 6.00 Build 0)  -->
<!DOCTYPE svg PUBLIC "-//W3C//DTD SVG 1.1//EN" "http://www.w3.org/Graphics/SVG/1.1/DTD/svg11.dtd">
<svg version="1.1" xmlns="http://www.w3.org/2000/svg" xmlns:xlink="http://www.w3.org/1999/xlink" x="0px" y="0px" width="800px"
	 height="800px" viewBox="0 0 800 800" enable-background="new 0 0 800 800" xml:space="preserve">
<g id="background">
</g>
<g id="objects">
	<g>
		<path fill="#FFFFFF" d="M404.241,635.71c-47.996,0-84.843-12.462-109.517-37.036c-24.669-24.57-37.179-61.259-37.179-109.047
			c0-65.15,10.402-113.498,31.799-147.804c0.772-1.237,0.906-2.767,0.364-4.12c-0.834-2.077-0.946-4.402-0.314-6.547
			c5.908-20.054,20.162-38.051,39.108-49.376c1.089-0.65,1.857-1.724,2.124-2.962c0.266-1.239,0.004-2.533-0.719-3.572
			c-0.239-0.343-1.322-1.897-1.576-2.253c-0.312-0.437-1.257-1.719-1.264-1.729c-0.001,0-0.878-1.2-1.162-1.578
			c-0.349-0.464-0.708-0.929-1.068-1.395c0,0-1.151-1.494-1.44-1.86c-0.386-0.488-1.385-1.727-1.385-1.727l0,0
			c0,0-0.897-1.112-1.205-1.485c-0.408-0.495-0.825-0.99-1.243-1.484l-1.405-1.662c-0.494-0.575-0.979-1.127-1.464-1.679
			l-1.275-1.449c-0.555-0.622-1.086-1.203-1.618-1.785l-1.208-1.318c-0.549-0.592-2.039-2.167-2.039-2.167l-0.852-0.896
			c-0.544-0.568-1.076-1.11-1.606-1.652l-1.345-1.369c-0.615-0.62-1.22-1.219-1.826-1.817l-1.18-1.166
			c-0.641-0.623-2.192-2.111-2.192-2.111l-0.873-0.834c-0.664-0.629-2.127-1.996-2.127-1.996l-0.986-0.913
			c-0.697-0.645-1.382-1.269-2.068-1.89l-1.091-0.986c-0.716-0.644-3.199-2.84-3.199-2.84c-0.747-0.656-3.226-2.798-3.226-2.798
			c-0.788-0.677-3.248-2.757-3.248-2.757c-0.828-0.696-3.297-2.744-3.297-2.744c-0.861-0.71-2.782-2.275-2.782-2.275
			c-0.013-0.011-2.333-1.887-3.235-2.606l-3.874-3.071c-1.055-0.828-3.381-2.639-3.381-2.639c-1.036-0.803-5.049-3.887-5.049-3.887
			c-3.101-2.367-4.546-6.342-3.694-10.136c0.853-3.792,3.86-6.767,7.662-7.577c4.045-0.863,8.258-1.3,12.521-1.3
			c10.194,0,20.754,2.402,32.284,7.343c0.581,0.249,1.192,0.369,1.799,0.369c1.254,0,2.483-0.517,3.368-1.48
			c1.312-1.43,1.576-3.532,0.661-5.243c-5.198-9.715-10.739-19.35-16.47-28.637c-1.339-2.17-2.698-4.337-4.079-6.489
			c-0.685-1.067-1.374-2.133-2.072-3.195c-2.99-4.552-5.814-8.612-8.633-12.413c-3.136-4.227-6.174-8.014-9.289-11.577
			c-4.169-4.77-8.479-9.111-12.811-12.905c-3.724-3.261-4.488-8.842-1.778-12.983c1.853-2.83,4.979-4.519,8.365-4.519
			c1.474,0,2.902,0.32,4.245,0.952l0.172,0.084c20.881,10.25,40.301,23.589,57.779,39.676c0.87,0.8,1.981,1.207,3.095,1.207
			c0.947,0,1.897-0.294,2.707-0.889c1.76-1.296,2.357-3.658,1.421-5.634l-0.142-0.313c-1.122-2.448-2.208-4.762-3.316-7.067
			l-0.119-0.251c-1.115-2.322-2.257-4.644-3.42-6.955l-0.075-0.15c-1.18-2.343-2.375-4.666-3.591-6.978
			c-1.275-2.427-2.523-4.746-3.791-7.054c-0.001,0-0.064-0.118-0.064-0.118c-8.961-16.281-19.003-32.042-29.846-46.847l-0.886-1.218
			c-0.343-0.473-0.686-0.946-1.035-1.415c-2.646-3.553-2.658-8.331-0.035-11.893c1.876-2.544,4.882-4.063,8.043-4.063
			c1.132,0,2.251,0.192,3.322,0.57c35.838,12.651,68.382,37.394,87.053,66.186c0.846,1.305,2.292,2.083,3.833,2.083
			c0.111,0,0.223-0.003,0.335-0.012c1.662-0.122,3.127-1.14,3.82-2.656c5.095-11.146,11.1-21.811,17.852-31.699
			c14.137-20.71,35.082-37.103,57.462-44.972c1.071-0.376,2.185-0.567,3.308-0.567c3.298,0,6.378,1.624,8.243,4.343
			c2.548,3.719,2.282,8.709-0.647,12.136c-1.161,1.358-2.33,2.831-3.575,4.503c-1.353,1.812-2.75,3.865-4.273,6.274l-0.574,0.899
			c-0.162,0.254-0.325,0.509-0.479,0.767c-0.384,0.628-0.749,1.269-1.117,1.909l-0.641,1.117c-0.257,0.449-0.515,0.898-0.763,1.351
			c-0.429,0.782-0.848,1.575-1.26,2.369c-0.378,0.722-0.744,1.433-1.101,2.146c-0.386,0.774-0.756,1.527-1.117,2.281
			c-0.381,0.805-0.759,1.617-1.129,2.429l-0.167,0.368c-0.279,0.609-0.529,1.154-0.766,1.7c-0.426,0.971-0.834,1.938-1.24,2.907
			l-0.669,1.594c-0.357,0.88-0.688,1.708-1.013,2.533c-0.758,1.926-0.127,4.123,1.542,5.351c0.805,0.595,1.758,0.892,2.709,0.892
			c1.014,0,2.023-0.336,2.858-1.004c6.701-5.372,13.603-10.048,20.514-13.899c1.482-0.828,3.162-1.265,4.855-1.265
			c2.682,0,5.2,1.046,7.087,2.946c3.142,3.159,3.806,8.075,1.613,11.955c-0.455,0.807-0.898,1.628-1.345,2.45l-0.526,0.972
			c-6.451,11.882-12.539,25.532-18.092,40.567c-0.861,2.335,0.304,4.931,2.621,5.837c1.863,0.729,3.446,1.983,4.58,3.63
			c1.838,2.666,2.271,6.07,1.155,9.108c-0.556,1.514-0.272,3.207,0.747,4.458c0.874,1.075,2.18,1.684,3.542,1.684
			c0.221,0,0.446-0.016,0.67-0.049c4.354-0.646,8.735-0.974,13.021-0.974c7.208,0,14.016,0.922,20.23,2.741l0.323,0.093
			c0.787,0.229,1.568,0.459,2.32,0.718c4.108,1.411,6.816,5.273,6.745,9.612c-0.073,4.338-2.908,8.109-7.056,9.381
			c-1.777,0.546-3.643,1.237-5.541,2.055c-1.445,0.623-3.019,1.38-4.808,2.317c-0.887,0.464-1.777,0.953-2.665,1.461
			c-0.796,0.456-1.593,0.926-2.387,1.414c-4.342,2.665-8.617,5.767-12.715,9.22c-2.902,2.445-5.629,4.982-8.103,7.54l0.005-0.004
			c-0.083,0.084-0.161,0.167-0.236,0.247c-1.471,1.528-2.881,3.089-4.16,4.609c-0.674,0.802-1.321,1.599-1.939,2.393l-0.646,0.835
			c-1.171,1.517-1.273,3.602-0.254,5.224c0.848,1.349,2.319,2.138,3.868,2.138c0.314,0,0.631-0.032,0.947-0.099
			c8.676-1.84,17.547-2.773,26.364-2.773c14.015,0,27.702,2.272,40.683,6.755c4.402,1.521,7.147,5.818,6.674,10.451
			c-0.471,4.636-4.026,8.292-8.646,8.894c-0.622,0.081-1.24,0.173-1.86,0.266l-0.638,0.095c-1.292,0.189-2.579,0.396-3.863,0.616
			l-0.172,0.03c-1.233,0.214-2.525,0.455-3.816,0.711c0,0-0.114,0.022-0.114,0.022c-1.098,0.22-2.193,0.451-3.286,0.692
			l-16.639,4.626c-1.032,0.347-2.043,0.697-3.05,1.057l-0.35,0.126c-1.142,0.41-2.278,0.833-3.406,1.268l-0.422,0.162
			c-1.094,0.425-2.197,0.867-3.301,1.321l-0.507,0.211c-1.024,0.426-2.104,0.887-3.177,1.36l-0.457,0.204
			c-1.12,0.497-2.159,0.971-3.194,1.458l-0.571,0.271c-1.024,0.486-2.032,0.975-3.038,1.476l-0.639,0.323
			c-0.989,0.499-1.967,1-2.933,1.512l-0.687,0.369c-0.967,0.518-1.91,1.029-2.847,1.554l-0.802,0.454
			c-0.871,0.494-1.779,1.016-2.677,1.548l-0.838,0.501c-0.871,0.522-1.745,1.051-2.61,1.592l-0.881,0.558
			c-0.837,0.529-1.674,1.064-2.505,1.611l-0.95,0.634c-0.793,0.53-1.591,1.068-2.386,1.614l-0.999,0.705
			c-0.77,0.542-1.537,1.081-2.288,1.631l-1.053,0.778c-0.736,0.544-1.464,1.085-2.182,1.635l-1.473,1.148
			c-1.195,0.927-1.854,2.385-1.76,3.895c0.096,1.509,0.93,2.874,2.23,3.645c11.857,7.024,20.34,16.116,26.404,23.251
			c16.162,19.016,15.011,24.65,14.458,27.358c-0.302,1.481-0.889,2.841-1.745,4.043c-1.06,1.491-1.129,3.471-0.176,5.032
			c25.363,41.504,28.783,98.645,28.783,149.068c0,46.387-12.865,82.721-38.239,107.99
			C487.318,622.894,450.828,635.71,404.241,635.71z"/>
		<g>
			<path fill="#80A249" d="M386.593,116.981c10.956,18.5,20.937,40.168,25.484,61.182c10.719,49.526,14.271,76.476,15.837,115.699
				c-8.858-2.835-29.495-1-38.352,1.84c-4.046-87.897-34.927-174.378-87.468-244.958C336.193,62.782,368.567,86.541,386.593,116.981
				z"/>
			<path opacity="0.8" fill="#80A249" d="M304.055,53.431c51.341,70.083,81.514,155.482,85.508,242.271
				c6.116-1.961,17.848-3.441,27.44-3.237C404.426,204.427,379.837,104.833,304.055,53.431z"/>
			<path fill="#80A249" d="M479.086,39.677c-10.317,12.071-17.243,26.475-22.444,40.211
				c-24.26,64.045-26.869,122.388-26.441,186.866c0.021,2.784-0.276,6.13-2.739,7.425c-1.383,0.726-3.044,0.542-4.592,0.341
				c-12.953-1.692-25.908-3.384-38.861-5.075c-0.741-42.933,2.398-87.199,14.41-128.424c6.248-21.441,15.548-41.717,28.142-60.163
				C439.153,62.414,458.018,47.086,479.086,39.677z"/>
			<path opacity="0.8" fill="#80A249" d="M475.093,44.703c-64.481,51.472-69.481,147.173-75.297,226.804
				c7.69,1.004,15.383,2.009,23.073,3.014c1.548,0.202,3.209,0.385,4.592-0.341c2.463-1.295,2.76-4.642,2.739-7.425
				c-0.428-64.479,2.182-122.821,26.441-186.866C461.14,68.01,466.938,55.639,475.093,44.703z"/>
			<path fill="#80A249" d="M499.277,81.378c-33.418,59.158-50.9,149.942-54.28,217.329c-13.62-4.388-30.047-3.375-43.667-7.764
				c8.242-33.375,15.525-92.67,29.112-129.544C442.325,129.142,469.741,97.84,499.277,81.378z"/>
			<path opacity="0.8" fill="#80A249" d="M497.326,84.944c-54.869,54.379-66.683,135.992-81.881,208.952
				c9.981,1.349,20.4,1.863,29.552,4.812C448.31,232.653,465.185,144.138,497.326,84.944z"/>
			<path fill="#80A249" d="M434.781,216.143c9.962-15.216,22.635-31.697,38.319-40.906c19.458-11.424,43.682-14.185,60.878-8.264
				c-17.344,5.322-36.352,20.349-47.499,34.664c-24.009,30.832-41.311,64.903-49.671,103.074
				c-10.544-0.787-25.662-3.154-36.206-3.942C407.59,271.562,418.331,241.268,434.781,216.143z"/>
			<path opacity="0.8" fill="#80A249" d="M413.373,302.091c8.089,0.969,16.695,2.116,23.436,2.62
				c8.36-38.172,25.662-72.243,49.671-103.074c11.147-14.314,30.155-29.342,47.499-34.664c-0.719-0.247-1.466-0.457-2.206-0.674
				C467.202,174.996,427.137,239.732,413.373,302.091z"/>
			<path fill="#80A249" d="M325.787,217.295c16.84,10.318,32.56,22.868,44.476,38.616c11.917,15.749,19.868,34.902,20.23,54.647
				c-10.08-5.067-22.385-5.481-32.783-1.103c-13.541-45.102-51.1-78.416-88.542-106.975
				C288.728,198.312,308.733,206.847,325.787,217.295z"/>
			<path opacity="0.8" fill="#80A249" d="M271.014,203.898c36.824,28.245,73.377,61.198,86.695,105.558
				c3.441-1.45,7.094-2.362,10.804-2.767C355.564,259.853,316.396,220.586,271.014,203.898z"/>
			<path fill="#80A249" d="M309.748,158.522c27.388,44.382,48.439,92.667,62.317,142.938c10.17-4.066,20.339-8.131,30.51-12.197
				c-11.542-76.312-62.335-145.61-131.632-179.589C286.647,123.426,298.785,140.757,309.748,158.522z"/>
			<path opacity="0.8" fill="#80A249" d="M285.371,119.552c-2.456-2.038-11.56-8.473-14.428-9.879
				c15.704,13.752,27.842,31.083,38.805,48.849c27.388,44.382,48.439,92.667,62.317,142.938c5.104-2.041,10.208-4.081,15.312-6.121
				C363.03,228.137,343.229,167.586,285.371,119.552z"/>
			<path fill="#80A249" d="M419.304,291.621c11.499-26.101,33.076-47.607,59.216-59.021c26.139-11.413,56.579-12.618,83.54-3.31
				c-46.017,6.013-89.224,31.228-117.095,68.337C436.721,294.528,428.071,292.502,419.304,291.621z"/>
			<path opacity="0.8" fill="#80A249" d="M427.929,292.876c5.804,1.091,11.511,2.674,17.036,4.751
				c27.336-36.395,69.42-61.336,114.442-67.956C509.743,229.846,457.15,253.668,427.929,292.876z"/>
			<path fill="#80A249" d="M422.677,290.944c-7.487,1.248-23.563,11.853-31.051,13.101c-4.813-53.947-19.984-105.746-48.146-152.01
				c24.321,4.216,47.273,26.303,59.305,53.517C423.164,251.644,421.587,280.691,422.677,290.944z"/>
			<path fill="#80A249" d="M408.49,284.723c7.494,1.21,23.623,11.733,31.118,12.944c4.542-53.971,19.452-105.845,47.382-152.25
				c-24.301,4.338-47.141,26.54-59.036,53.814C407.807,245.425,409.53,274.464,408.49,284.723z"/>
			<path opacity="0.8" fill="#80A249" d="M486.39,146.449c-27.533,46.143-42.274,97.644-46.782,151.217
				c-4.094-0.661-10.758-4.097-17.186-7.278C423.548,235.933,442.818,179.901,486.39,146.449z"/>
			<g>
				<path fill="#EFB638" d="M540.949,489.627c0,92.044-53.013,136.095-136.708,136.095c-89.516,0-136.708-44.051-136.708-136.095
					c0-92.044,20.993-197.228,136.708-197.228C529.418,292.4,540.949,397.583,540.949,489.627z"/>
				<g>
					<defs>
						<path id="SVGID_1_" d="M540.949,489.627c0,92.044-53.013,136.095-136.708,136.095c-89.516,0-136.708-44.051-136.708-136.095
							c0-92.044,20.993-197.228,136.708-197.228C529.418,292.4,540.949,397.583,540.949,489.627z"/>
					</defs>
					<clipPath id="SVGID_2_">
						<use xlink:href="#SVGID_1_"  overflow="visible"/>
					</clipPath>
					<g clip-path="url(#SVGID_2_)">
						<path fill="none" stroke="#C27A1A" stroke-width="6.3722" stroke-miterlimit="10" d="M450.763,252.524
							c-60.668,61.622-132.289,112.431-210.495,149.332"/>
						<path fill="none" stroke="#C27A1A" stroke-width="6.3722" stroke-miterlimit="10" d="M489.604,279.751
							c-14.645,19.997-29.371,40.088-46.996,57.518c-28.239,27.929-116.598,88.521-153.023,107.723
							c-20.776,10.952-42.14,20.718-63.793,29.813"/>
						<path fill="none" stroke="#C27A1A" stroke-width="6.3722" stroke-miterlimit="10" d="M533.871,307.541
							c-50.303,76.56-129.292,131.415-203.863,184.271c-35.99,25.51-75.194,46.138-117.217,59.56"/>
						<path fill="none" stroke="#C27A1A" stroke-width="6.3722" stroke-miterlimit="10" d="M562.83,364.681
							c-34.324,41.995-77.115,76.112-119.555,109.885C378.392,526.2,312.204,578.593,234.896,608.588"/>
						<path fill="none" stroke="#C27A1A" stroke-width="6.3722" stroke-miterlimit="10" d="M579.326,411.393
							c-15.135,19.882-30.293,39.793-47.107,58.275c-21.933,24.11-46.538,45.633-71.526,66.561
							c-54.074,45.284-111.14,88.582-176.49,115.112"/>
						<path fill="none" stroke="#C27A1A" stroke-width="6.3722" stroke-miterlimit="10" d="M595.481,467.974
							C535.298,555.96,451.127,624.795,363.26,685.151c-11.553,7.936-23.7,15.953-37.558,18.041"/>
						<path fill="none" stroke="#C27A1A" stroke-width="6.3722" stroke-miterlimit="10" d="M402.497,216.854
							c6.393,26.744,26.757,47.662,47.146,66.11c59.248,53.602,127.068,99.296,203.073,123.925"/>
						<path fill="none" stroke="#C27A1A" stroke-width="6.3722" stroke-miterlimit="10" d="M339.992,228.126
							c8.999,12.36,19.63,23.426,30.237,34.438c36.62,38.017,73.73,76.205,117.558,105.625
							c36.885,24.761,77.78,42.806,118.435,60.718c10.484,4.619,21.092,9.277,32.372,11.274c9.036,1.598,18.435,1.477,27.123,4.424"
							/>
						<path fill="none" stroke="#C27A1A" stroke-width="6.3722" stroke-miterlimit="10" d="M289.968,239.33
							c7.681,17.508,19.931,32.574,32.483,46.995c62.377,71.656,136.128,133.393,217.643,182.187
							c24.721,14.797,50.48,28.544,78.42,35.575c12.751,3.211,25.813,4.984,38.844,6.75"/>
						<path fill="none" stroke="#C27A1A" stroke-width="6.3722" stroke-miterlimit="10" d="M243.489,282.544
							c87.705,114.464,204.809,206.208,336.936,263.972c18.419,8.053,37.208,15.484,56.782,20.058
							c10.21,2.387,20.915,4.111,29.669,9.884"/>
						<path fill="none" stroke="#C27A1A" stroke-width="6.3722" stroke-miterlimit="10" d="M223.263,341.461
							c40.046,62.042,100.286,107.854,159.896,151.438c21.509,15.726,43.101,31.337,64.778,46.832
							c43.289,30.946,87.99,61.954,139.188,76.461"/>
						<path fill="none" stroke="#C27A1A" stroke-width="6.3722" stroke-miterlimit="10" d="M223.658,425.21
							c36.408,48.514,86.302,84.883,135.567,120.268c60.496,43.453,122.758,87.325,194.336,107.926"/>
						<path fill="none" stroke="#C27A1A" stroke-width="6.3722" stroke-miterlimit="10" d="M217.214,487.562
							c36.599,35.667,73.198,71.333,109.797,107.001c15.038,14.654,30.163,29.382,47.394,41.385
							c13.839,9.64,28.891,17.415,44.18,24.539c21.048,9.807,42.623,18.431,64.188,27.048"/>
					</g>
				</g>
				<path fill="#EFB638" d="M444.986,296.853c38.611,41.906,43.563,114.035,43.563,179.998c0,90.282-42.645,138.322-111.792,147.293
					c8.674,1.033,17.817,1.579,27.483,1.579c83.695,0,136.708-44.051,136.708-136.095
					C540.949,408.76,532.036,317.763,444.986,296.853z"/>
			</g>
			<path fill="#80A249" d="M368.263,279.692c-31.276,1.403-60.443,24.256-69.289,54.287c35.294-17.396,73.251-29.376,112.136-35.396
				C402.476,284.672,384.618,278.958,368.263,279.692z"/>
			<path fill="#80A249" d="M502.004,310.594c6.187,7.278,13.92,18.331,12.008,19.286c-42.209,21.106-95.701-27.655-94.436-46.35
				c14.97-5.158,31.7-5.048,46.602,0.308C481.077,289.192,491.75,298.529,502.004,310.594z"/>
			<path opacity="0.8" fill="#80A249" d="M344.084,153.064c27.765,46.003,42.764,97.43,47.542,150.98
				c4.088-0.682,10.735-4.15,17.147-7.365C407.375,242.231,387.824,186.296,344.084,153.064z"/>
			<path opacity="0.8" fill="#80A249" d="M388.347,282.169c-32.995,7.857-64.322,25.474-86.028,50.201
				c34.345-16.518,71.129-27.957,108.791-33.788C406.007,290.362,397.677,285.025,388.347,282.169z"/>
			<path fill="#80A249" d="M375.808,331.041c0.65,12.912,5.732,25.147,11.035,36.938c1.533,3.412,3.269,7.014,6.477,8.938
				c19.271-22.867,33.579-47.892,30.207-77.604c-0.584-5.15-3.668-13.901-8.006-16.739c-5.913-3.87-18.168-4.095-23.652,0.364
				C378.311,293.959,374.929,313.592,375.808,331.041z"/>
			<path opacity="0.8" fill="#80A249" d="M423.527,299.313c-0.584-5.15-3.668-13.901-8.006-16.739
				c-2.821-1.847-7.089-2.853-11.374-2.926c-7.173,31.463-9.741,64.204-11.069,97.098c0.083,0.054,0.156,0.119,0.242,0.171
				C412.59,354.051,426.899,329.025,423.527,299.313z"/>
			<path opacity="0.8" fill="#80A249" d="M419.567,284.006c-0.357,18.884,51.79,66.075,93.498,46.322
				C488.663,309.503,459.916,290.58,419.567,284.006z"/>
		</g>
	</g>
	<path fill="#FFFFFF" d="M236.802,519.77v13.021c0,0-133.375,40.915-24.039,98.575c0,0,72.024,34.101,195.154,31.002
		c0,0,158.632-1.862,208.189-50.84c0,0,40.487-30.379-21.335-64.479c0,0-10.67,35.646-10.67,36.576l-22.963-58.896l47.028-27.277
		l-9.192,34.716c0,0,82.259,34.104,55.695,83.701c0,0-31.674,72.537-247.792,77.81c0,0-119.04,3.404-204.359-34.412
		c0,0-84.274-30.998-58.725-84.937C143.789,574.331,160.487,540.85,236.802,519.77z"/>
	<path fill="#1A9A8B" d="M242.093,523.472v12.267c0,0-130.251,38.538-23.476,92.851c0,0,70.336,32.12,190.582,29.202
		c0,0,154.918-1.755,203.315-47.889c0,0,39.539-28.615-20.838-60.734c0,0-10.417,33.577-10.417,34.453l-22.425-55.478l45.925-25.691
		l-8.978,32.699c0,0,80.334,32.124,54.393,78.841c0,0-30.933,68.324-241.988,73.29c0,0-116.252,3.207-199.574-32.414
		c0,0-82.299-29.198-57.35-80.004C151.259,574.865,167.567,543.329,242.093,523.472z"/>
	<g>
		<g>
			<path fill="#1A9A8B" d="M162.711,710c3.212-1.954,4.809-2.941,7.982-4.928c1.17,2.224,2.89,4.231,5.161,6.007
				s4.709,3.048,7.294,3.811c3.092,0.912,5.669,1.032,7.718,0.377c2.049-0.654,3.328-1.911,3.846-3.756
				c0.544-1.938,0.118-3.581-1.271-4.935c-1.388-1.353-3.864-2.539-7.43-3.595c-3.242-0.96-5.372-1.559-6.396-1.77
				c1.122-3.671,1.682-5.507,2.804-9.178c0.6,0.235,2.681,0.9,6.252,1.958c2.906,0.86,5.326,1.092,7.248,0.708
				c1.921-0.384,3.122-1.447,3.609-3.174c0.52-1.845,0.049-3.501-1.4-4.976c-1.449-1.476-3.529-2.608-6.245-3.412
				c-4.875-1.443-9.582-1.08-14.201,1.096c-1.326-3.224-1.977-4.837-3.26-8.064c6.263-3.496,13.259-4.037,21.164-1.71
				c5.726,1.686,9.927,4.111,12.636,7.361c2.709,3.251,3.56,6.876,2.491,10.897c-0.768,2.89-2.5,5.039-5.213,6.425
				c-2.714,1.386-8.882,1.568-8.882,1.568c-0.002,0.011,2.56,1.209,3.764,2.14c1.204,0.93,2.28,2.022,3.227,3.28
				c0.947,1.259,1.603,2.725,1.966,4.393c0.363,1.669,0.32,3.366-0.138,5.096c-1.115,4.212-3.89,7.144-8.372,8.733
				s-9.889,1.496-16.148-0.348c-4.593-1.353-8.466-3.312-11.593-5.836S163.996,712.915,162.711,710z"/>
			<path fill="#1A9A8B" d="M214.054,706.368c1.261-4.921,3.301-9.019,6.079-12.312c2.776-3.293,6.184-5.574,10.224-6.876
				c4.041-1.302,8.44-1.408,13.247-0.343c5.853,1.298,10.374,3.976,13.638,8.112c-2.559,2.832-3.848,4.244-6.448,7.055
				c-1.156-1.634-2.441-2.926-3.858-3.876s-3.203-1.661-5.361-2.14c-3.664-0.813-6.977-0.174-9.981,1.924s-4.999,5.104-5.947,9.049
				c-0.102,0.424-0.163,1.006-0.163,1.006c0.172,0.082,3.84-2.449,6.525-3.107c2.685-0.656,5.35-0.689,8.013-0.101
				c3.122,0.69,5.85,1.892,8.205,3.614c2.354,1.724,4.112,3.978,5.277,6.769c1.166,2.79,1.433,5.856,0.776,9.202
				c-0.949,4.83-3.613,8.481-8.058,10.894s-9.697,2.97-15.676,1.628c-3.924-0.881-7.233-2.35-9.905-4.379
				c-2.672-2.029-4.602-4.436-5.792-7.196c-1.19-2.76-1.842-5.731-1.964-8.909C212.762,713.204,213.158,709.866,214.054,706.368z
				 M223.746,715.199c-0.399,0.669-0.176,2.519-0.012,3.742c0.164,1.226,0.531,2.423,1.103,3.592
				c0.573,1.169,1.47,2.206,2.692,3.106c1.222,0.899,2.706,1.548,4.452,1.941c2.85,0.642,5.296,0.396,7.322-0.723
				c2.024-1.119,3.226-2.608,3.618-4.457c0.514-2.424-0.023-4.455-1.599-6.102c-1.576-1.646-3.693-2.763-6.361-3.364
				c-1.938-0.438-3.892-0.458-5.87-0.063C227.114,713.266,224.349,714.187,223.746,715.199z"/>
			<path fill="#1A9A8B" d="M260.529,726.329c-0.311-3.123-0.147-6.325,0.473-9.602s1.637-6.306,3.034-9.096s3.145-5.242,5.234-7.366
				c2.088-2.122,4.61-3.664,7.57-4.637c2.959-0.973,6.157-1.181,9.616-0.628c3.459,0.553,6.43,1.745,8.936,3.591
				c2.507,1.846,4.422,4.095,5.742,6.761c1.32,2.667,2.215,5.544,2.673,8.631c0.457,3.086,0.478,6.28,0.046,9.587
				s-1.272,6.4-2.539,9.271c-1.266,2.87-2.932,5.417-5.004,7.632c-2.072,2.213-4.663,3.85-7.771,4.885
				c-3.108,1.035-6.529,1.262-10.233,0.67c-3.705-0.592-6.885-1.872-9.519-3.824c-2.634-1.952-4.593-4.315-5.875-7.064
				C261.63,732.389,260.84,729.452,260.529,726.329z M272.189,718.759c-0.554,3.188-0.713,6.02-0.465,8.488
				c0.248,2.47,1.039,4.577,2.382,6.318s3.241,2.813,5.681,3.202c2.44,0.39,4.575-0.037,6.393-1.273s3.228-2.994,4.231-5.264
				c1.003-2.269,1.734-5.009,2.2-8.211s0.552-6.02,0.267-8.453s-1.087-4.5-2.398-6.198c-1.312-1.699-3.143-2.731-5.503-3.108
				c-1.764-0.281-3.368-0.13-4.821,0.462c-1.454,0.592-2.688,1.569-3.705,2.938s-1.88,2.969-2.585,4.8
				S272.601,716.391,272.189,718.759z"/>
			<path fill="#1A9A8B" d="M325.611,744.426c2.721-2.947,4.069-4.425,6.741-7.396c1.785,2.124,4.021,3.914,6.71,5.36
				c2.688,1.446,5.698,2.29,9.008,2.52c2.883,0.199,5.126-0.176,6.714-1.109c1.588-0.934,2.424-2.175,2.513-3.709
				c0.057-0.99-0.315-1.869-1.116-2.639c-0.8-0.771-1.876-1.379-3.223-1.825c-1.346-0.446-2.875-0.956-4.579-1.533
				c-1.705-0.577-3.455-1.13-5.25-1.656c-1.796-0.526-3.533-1.232-5.206-2.116s-3.138-1.874-4.398-2.967
				c-1.261-1.093-2.227-2.514-2.898-4.254c-0.671-1.74-0.9-3.687-0.693-5.841c0.394-4.093,2.431-7.358,6.056-9.837
				c3.625-2.479,8.198-3.495,13.78-3.101c7.765,0.55,13.938,3.08,18.643,7.713c-2.453,2.947-3.692,4.417-6.193,7.344
				c-1.868-1.842-4.023-3.276-6.471-4.313c-2.448-1.035-4.96-1.647-7.553-1.834c-2.188-0.157-3.926,0.135-5.221,0.883
				c-1.295,0.749-2.003,1.838-2.121,3.273c-0.072,0.88,0.273,1.676,1.041,2.39c0.767,0.714,1.817,1.303,3.148,1.764
				c1.331,0.461,2.845,0.959,4.541,1.486c1.696,0.528,3.42,1.055,5.168,1.585c1.749,0.53,3.456,1.229,5.122,2.096
				c1.665,0.866,3.147,1.838,4.446,2.913c1.3,1.075,2.322,2.476,3.065,4.199s1.074,3.664,0.981,5.826
				c-0.197,4.577-2.107,8.217-5.784,10.877c-3.677,2.659-8.895,3.798-15.592,3.33C337.758,753.211,330.58,750.01,325.611,744.426z"
				/>
			<path fill="#1A9A8B" d="M375.845,735.215c0.321-9.593,0.645-19.186,0.966-28.778c4.214,0.142,6.322,0.198,10.538,0.279
				c-0.183,9.519-0.362,19.037-0.547,28.556c-0.065,3.427,0.918,6.197,2.977,8.295c2.058,2.098,5.044,3.168,8.938,3.182
				c3.868,0.013,6.841-1.032,8.888-3.103c2.047-2.071,3.039-4.841,2.997-8.292c-0.118-9.52-0.236-19.04-0.352-28.56
				c4.216-0.052,6.326-0.093,10.541-0.205c0.256,9.595,0.509,19.19,0.766,28.785c0.08,3-0.323,5.729-1.224,8.188
				c-0.9,2.461-2.269,4.611-4.107,6.439s-4.251,3.25-7.237,4.251s-6.426,1.509-10.302,1.495c-7.7-0.026-13.526-1.97-17.393-5.705
				C377.427,746.309,375.639,741.352,375.845,735.215z"/>
			<path fill="#1A9A8B" d="M432.42,754.25c-0.642-15.994-1.28-31.989-1.917-47.983c10.252-0.409,15.378-0.702,25.614-1.471
				c2.23-0.167,4.276,0.002,6.148,0.516c1.874,0.514,3.426,1.29,4.66,2.331c1.234,1.042,2.225,2.26,2.97,3.648
				c0.746,1.391,1.198,2.887,1.351,4.497c0.271,2.87-0.307,5.369-1.748,7.489c-1.441,2.121-5.794,4.229-5.794,4.229
				c0.004,0.04,5.121,1.277,7.172,3.324c2.052,2.048,3.231,4.549,3.515,7.511c0.361,3.779-0.635,7.015-3.029,9.689
				c-2.395,2.676-5.997,4.221-10.775,4.585C451.208,753.328,441.818,753.876,432.42,754.25z M441.926,724.841
				c5.347-0.29,8.021-0.459,13.363-0.844c1.781-0.128,3.162-0.693,4.138-1.687s1.397-2.262,1.274-3.804
				c-0.119-1.494-0.734-2.66-1.843-3.504c-1.108-0.843-2.539-1.197-4.296-1.07c-5.271,0.38-7.907,0.544-13.183,0.83
				C441.599,718.793,441.708,720.811,441.926,724.841z M443.006,744.745c5.67-0.307,8.503-0.487,14.167-0.898
				c2.054-0.149,3.618-0.756,4.69-1.816c1.073-1.06,1.539-2.448,1.4-4.153c-0.127-1.564-0.805-2.812-2.023-3.751
				c-1.219-0.938-2.837-1.332-4.861-1.185c-5.584,0.405-8.376,0.584-13.965,0.887C442.651,738.195,442.77,740.377,443.006,744.745z"
				/>
			<path fill="#1A9A8B" d="M478.555,751.038c4.959-16.555,9.604-33.166,13.947-49.894c5.186-0.651,7.775-0.999,12.952-1.744
				c8.617,14.983,17.504,29.769,26.68,44.417c-4.972,0.847-7.46,1.25-12.442,2.016c-1.791-3.011-2.678-4.519-4.442-7.539
				c-8.744,1.306-13.125,1.896-21.895,2.949c-0.901,3.38-1.36,5.067-2.29,8.445C486.064,750.268,483.563,750.54,478.555,751.038z
				 M495.208,731.951c6.31-0.783,9.461-1.21,15.757-2.125c-4.337-7.726-6.466-11.602-10.636-19.384
				C498.368,719.049,497.344,723.353,495.208,731.951z"/>
			<path fill="#1A9A8B" d="M536.879,742.994c-2.784-15.764-5.57-31.526-8.352-47.29c4.224-0.746,6.334-1.135,10.549-1.943
				c9.405,8.514,19.031,16.781,28.857,24.806c-2.201-9.813-4.396-19.625-6.601-29.437c4.083-0.916,6.12-1.388,10.192-2.362
				c3.735,15.566,7.447,31.138,11.177,46.705c-4.19,1.003-6.286,1.488-10.487,2.433c-10.32-8.29-20.416-16.863-30.281-25.69
				c1.968,10.255,3.923,20.512,5.888,30.767C543.45,741.818,541.26,742.22,536.879,742.994z"/>
			<path fill="#1A9A8B" d="M584.49,708.356c-1.193-4.775-1.063-9.313,0.329-13.611c1.393-4.297,3.746-7.915,7.065-10.883
				s7.275-5.103,11.916-6.441c2.354-0.68,4.649-1.059,6.888-1.134s4.299,0.132,6.18,0.622c1.882,0.491,3.611,1.13,5.181,1.915
				c1.57,0.785,3.046,1.737,4.429,2.856c-2.787,2.838-4.193,4.25-7.032,7.061c-1.729-1.373-3.761-2.33-6.089-2.88
				s-4.675-0.483-7.059,0.204c-4.37,1.261-7.572,3.708-9.65,7.383s-2.561,7.708-1.39,12.115c1.17,4.406,3.604,7.683,7.347,9.783
				c3.744,2.102,7.924,2.504,12.481,1.189c3.363-0.971,5.893-2.658,7.568-5.035s2.522-5.021,2.55-7.919
				c-6.129,1.885-9.201,2.792-15.358,4.545c-0.985-3.463-1.479-5.193-2.465-8.656c10.655-3.033,15.964-4.649,26.529-8.083
				c2.644,8.137,2.501,15.268-0.571,21.37c-3.072,6.104-8.691,10.396-16.757,12.712c-3.453,0.991-6.919,1.344-10.377,1.062
				s-6.646-1.144-9.553-2.578c-2.907-1.434-5.438-3.502-7.598-6.196C586.896,715.063,585.382,711.926,584.49,708.356z"/>
		</g>
	</g>
	<text transform="matrix(1 0 0 1 125.1597 678.436)" fill="#1A9A8B" font-family="'FontAwesome'" font-size="36"> </text>
	<text transform="matrix(1 0 0 1 645.1597 678.436)" fill="#1A9A8B" font-family="'FontAwesome'" font-size="36"> </text>
</g>
</svg>
