<?xml version="1.0" encoding="utf-8"?>
<!-- Generator: Adobe Illustrator 16.0.0, SVG Export Plug-In . SVG Version: 6.00 Build 0)  -->
<!DOCTYPE svg PUBLIC "-//W3C//DTD SVG 1.1//EN" "http://www.w3.org/Graphics/SVG/1.1/DTD/svg11.dtd">
<svg version="1.1" xmlns="http://www.w3.org/2000/svg" xmlns:xlink="http://www.w3.org/1999/xlink" x="0px" y="0px" width="800px"
	 height="800px" viewBox="0 0 800 800" enable-background="new 0 0 800 800" xml:space="preserve">
<g id="background">
</g>
<g id="objects">
	<path fill="#80A249" d="M386.593,116.981c10.956,18.5,20.937,40.168,25.484,61.182c10.719,49.526,14.271,76.476,15.837,115.699
		c-8.858-2.835-29.495-1-38.352,1.84c-4.046-87.897-34.927-174.378-87.468-244.958C336.193,62.782,368.567,86.541,386.593,116.981z"
		/>
	<path opacity="0.8" fill="#80A249" d="M304.055,53.431c51.341,70.083,81.514,155.482,85.508,242.271
		c6.116-1.961,17.848-3.441,27.44-3.237C404.426,204.427,379.837,104.833,304.055,53.431z"/>
	<path fill="#80A249" d="M479.086,39.677c-10.317,12.071-17.243,26.475-22.444,40.211c-24.26,64.045-26.869,122.388-26.441,186.866
		c0.021,2.784-0.276,6.13-2.739,7.425c-1.383,0.726-3.044,0.542-4.592,0.341c-12.953-1.692-25.908-3.384-38.861-5.075
		c-0.741-42.933,2.398-87.199,14.41-128.424c6.248-21.441,15.548-41.717,28.142-60.163
		C439.153,62.414,458.018,47.086,479.086,39.677z"/>
	<path opacity="0.8" fill="#80A249" d="M475.093,44.703c-64.481,51.472-69.481,147.173-75.297,226.804
		c7.69,1.004,15.383,2.009,23.073,3.014c1.548,0.202,3.209,0.385,4.592-0.341c2.463-1.295,2.76-4.642,2.739-7.425
		c-0.428-64.479,2.182-122.821,26.441-186.866C461.14,68.01,466.938,55.639,475.093,44.703z"/>
	<path fill="#80A249" d="M499.277,81.378c-33.418,59.158-50.9,149.942-54.28,217.329c-13.62-4.388-30.047-3.375-43.667-7.764
		c8.242-33.375,15.525-92.67,29.112-129.544C442.325,129.142,469.741,97.84,499.277,81.378z"/>
	<path opacity="0.8" fill="#80A249" d="M497.326,84.944c-54.869,54.379-66.683,135.992-81.881,208.952
		c9.981,1.349,20.4,1.863,29.552,4.812C448.31,232.653,465.185,144.138,497.326,84.944z"/>
	<path fill="#80A249" d="M434.781,216.143c9.962-15.216,22.635-31.697,38.319-40.906c19.458-11.424,43.682-14.185,60.878-8.264
		c-17.344,5.322-36.352,20.349-47.499,34.664c-24.009,30.832-41.311,64.903-49.671,103.074c-10.544-0.787-25.662-3.154-36.206-3.942
		C407.59,271.562,418.331,241.268,434.781,216.143z"/>
	<path opacity="0.8" fill="#80A249" d="M413.373,302.091c8.089,0.969,16.695,2.116,23.436,2.62
		c8.36-38.172,25.662-72.243,49.671-103.074c11.147-14.314,30.155-29.342,47.499-34.664c-0.719-0.247-1.466-0.457-2.206-0.674
		C467.202,174.996,427.137,239.732,413.373,302.091z"/>
	<path fill="#80A249" d="M325.787,217.295c16.84,10.318,32.56,22.868,44.476,38.616c11.917,15.749,19.868,34.902,20.23,54.647
		c-10.08-5.067-22.385-5.481-32.783-1.103c-13.541-45.102-51.1-78.416-88.542-106.975
		C288.728,198.312,308.733,206.847,325.787,217.295z"/>
	<path opacity="0.8" fill="#80A249" d="M271.014,203.898c36.824,28.245,73.377,61.198,86.695,105.558
		c3.441-1.45,7.094-2.362,10.804-2.767C355.564,259.853,316.396,220.586,271.014,203.898z"/>
	<path fill="#80A249" d="M309.748,158.522c27.388,44.382,48.439,92.667,62.317,142.938c10.17-4.066,20.339-8.131,30.51-12.197
		c-11.542-76.312-62.335-145.61-131.632-179.589C286.647,123.426,298.785,140.757,309.748,158.522z"/>
	<path opacity="0.8" fill="#80A249" d="M285.371,119.552c-2.456-2.038-11.56-8.473-14.428-9.879
		c15.704,13.752,27.842,31.083,38.805,48.849c27.388,44.382,48.439,92.667,62.317,142.938c5.104-2.041,10.208-4.081,15.312-6.121
		C363.03,228.137,343.229,167.586,285.371,119.552z"/>
	<path fill="#80A249" d="M419.304,291.621c11.499-26.101,33.076-47.607,59.216-59.021c26.139-11.413,56.579-12.618,83.54-3.31
		c-46.017,6.013-89.224,31.228-117.095,68.337C436.721,294.528,428.071,292.502,419.304,291.621z"/>
	<path opacity="0.8" fill="#80A249" d="M427.929,292.876c5.804,1.091,11.511,2.674,17.036,4.751
		c27.336-36.395,69.42-61.336,114.442-67.956C509.743,229.846,457.15,253.668,427.929,292.876z"/>
	<path fill="#80A249" d="M422.677,290.944c-7.487,1.248-23.563,11.853-31.051,13.101c-4.813-53.947-19.984-105.746-48.146-152.01
		c24.321,4.216,47.273,26.303,59.305,53.517C423.164,251.644,421.587,280.691,422.677,290.944z"/>
	<path fill="#80A249" d="M408.49,284.723c7.494,1.21,23.623,11.733,31.118,12.944c4.542-53.971,19.452-105.845,47.382-152.25
		c-24.301,4.338-47.141,26.54-59.036,53.814C407.807,245.425,409.53,274.464,408.49,284.723z"/>
	<path opacity="0.8" fill="#80A249" d="M486.39,146.449c-27.533,46.143-42.274,97.644-46.782,151.217
		c-4.094-0.661-10.758-4.097-17.186-7.278C423.548,235.933,442.818,179.901,486.39,146.449z"/>
	<path fill="#EFB638" d="M540.949,489.627c0,92.044-53.013,136.095-136.708,136.095c-89.516,0-136.708-44.051-136.708-136.095
		c0-92.044,20.993-197.228,136.708-197.228C529.418,292.4,540.949,397.583,540.949,489.627z"/>
	<g>
		<defs>
			<path id="SVGID_1_" d="M540.949,489.627c0,92.044-53.013,136.095-136.708,136.095c-89.516,0-136.708-44.051-136.708-136.095
				c0-92.044,20.993-197.228,136.708-197.228C529.418,292.4,540.949,397.583,540.949,489.627z"/>
		</defs>
		<clipPath id="SVGID_2_">
			<use xlink:href="#SVGID_1_"  overflow="visible"/>
		</clipPath>
		<g clip-path="url(#SVGID_2_)">
			<path fill="none" stroke="#C27A1A" stroke-width="6.3722" stroke-miterlimit="10" d="M450.763,252.524
				c-60.668,61.622-132.289,112.431-210.495,149.332"/>
			<path fill="none" stroke="#C27A1A" stroke-width="6.3722" stroke-miterlimit="10" d="M489.604,279.751
				c-14.645,19.997-29.371,40.088-46.996,57.518c-28.239,27.929-116.598,88.521-153.023,107.723
				c-20.776,10.952-42.14,20.718-63.793,29.813"/>
			<path fill="none" stroke="#C27A1A" stroke-width="6.3722" stroke-miterlimit="10" d="M533.871,307.541
				c-50.303,76.56-129.292,131.415-203.863,184.271c-35.99,25.51-75.194,46.138-117.217,59.56"/>
			<path fill="none" stroke="#C27A1A" stroke-width="6.3722" stroke-miterlimit="10" d="M562.83,364.681
				c-34.324,41.995-77.115,76.112-119.555,109.885C378.392,526.2,312.204,578.593,234.896,608.588"/>
			<path fill="none" stroke="#C27A1A" stroke-width="6.3722" stroke-miterlimit="10" d="M579.326,411.393
				c-15.135,19.882-30.293,39.793-47.107,58.275c-21.933,24.11-46.538,45.633-71.526,66.561
				c-54.074,45.284-111.14,88.582-176.49,115.112"/>
			<path fill="none" stroke="#C27A1A" stroke-width="6.3722" stroke-miterlimit="10" d="M595.481,467.974
				C535.298,555.96,451.127,624.795,363.26,685.151c-11.553,7.936-23.7,15.953-37.558,18.041"/>
			<path fill="none" stroke="#C27A1A" stroke-width="6.3722" stroke-miterlimit="10" d="M402.497,216.854
				c6.393,26.744,26.757,47.662,47.146,66.11c59.248,53.602,127.068,99.296,203.073,123.925"/>
			<path fill="none" stroke="#C27A1A" stroke-width="6.3722" stroke-miterlimit="10" d="M339.992,228.126
				c8.999,12.36,19.63,23.426,30.237,34.438c36.62,38.017,73.73,76.205,117.558,105.625c36.885,24.761,77.78,42.806,118.435,60.718
				c10.484,4.619,21.092,9.277,32.372,11.274c9.036,1.598,18.435,1.477,27.123,4.424"/>
			<path fill="none" stroke="#C27A1A" stroke-width="6.3722" stroke-miterlimit="10" d="M289.968,239.33
				c7.681,17.508,19.931,32.574,32.483,46.995c62.377,71.656,136.128,133.393,217.643,182.187
				c24.721,14.797,50.48,28.544,78.42,35.575c12.751,3.211,25.813,4.984,38.844,6.75"/>
			<path fill="none" stroke="#C27A1A" stroke-width="6.3722" stroke-miterlimit="10" d="M243.489,282.544
				c87.705,114.464,204.809,206.208,336.936,263.972c18.419,8.053,37.208,15.484,56.782,20.058
				c10.21,2.387,20.915,4.111,29.669,9.884"/>
			<path fill="none" stroke="#C27A1A" stroke-width="6.3722" stroke-miterlimit="10" d="M223.263,341.461
				c40.046,62.042,100.286,107.854,159.896,151.438c21.509,15.726,43.101,31.337,64.778,46.832
				c43.289,30.946,87.99,61.954,139.188,76.461"/>
			<path fill="none" stroke="#C27A1A" stroke-width="6.3722" stroke-miterlimit="10" d="M223.658,425.21
				c36.408,48.514,86.302,84.883,135.567,120.268c60.496,43.453,122.758,87.325,194.336,107.926"/>
			<path fill="none" stroke="#C27A1A" stroke-width="6.3722" stroke-miterlimit="10" d="M217.214,487.562
				c36.599,35.667,73.198,71.333,109.797,107.001c15.038,14.654,30.163,29.382,47.394,41.385
				c13.839,9.64,28.891,17.415,44.18,24.539c21.048,9.807,42.623,18.431,64.188,27.048"/>
		</g>
	</g>
	<path fill="#80A249" d="M368.263,279.692c-31.276,1.403-60.443,24.256-69.289,54.287c35.294-17.396,73.251-29.376,112.136-35.396
		C402.476,284.672,384.618,278.958,368.263,279.692z"/>
	<path fill="#80A249" d="M502.004,310.594c6.187,7.278,13.92,18.331,12.008,19.286c-42.209,21.106-95.701-27.655-94.436-46.35
		c14.97-5.158,31.7-5.048,46.602,0.308C481.077,289.192,491.75,298.529,502.004,310.594z"/>
	<path opacity="0.8" fill="#80A249" d="M344.084,153.064c27.765,46.003,42.764,97.43,47.542,150.98
		c4.088-0.682,10.735-4.15,17.147-7.365C407.375,242.231,387.824,186.296,344.084,153.064z"/>
	<path opacity="0.8" fill="#80A249" d="M388.347,282.169c-32.995,7.857-64.322,25.474-86.028,50.201
		c34.345-16.518,71.129-27.957,108.791-33.788C406.007,290.362,397.677,285.025,388.347,282.169z"/>
	<path fill="#80A249" d="M375.808,331.041c0.65,12.912,5.732,25.147,11.035,36.938c1.533,3.412,3.269,7.014,6.477,8.938
		c19.271-22.867,33.579-47.892,30.207-77.604c-0.584-5.15-3.668-13.901-8.006-16.739c-5.913-3.87-18.168-4.095-23.652,0.364
		C378.311,293.959,374.929,313.592,375.808,331.041z"/>
	<path opacity="0.8" fill="#80A249" d="M423.527,299.313c-0.584-5.15-3.668-13.901-8.006-16.739
		c-2.821-1.847-7.089-2.853-11.374-2.926c-7.173,31.463-9.741,64.204-11.069,97.098c0.083,0.054,0.156,0.119,0.242,0.171
		C412.59,354.051,426.899,329.025,423.527,299.313z"/>
	<path opacity="0.8" fill="#80A249" d="M419.567,284.006c-0.357,18.884,51.79,66.075,93.498,46.322
		C488.663,309.503,459.916,290.58,419.567,284.006z"/>
	<path fill="#1A9A8B" d="M242.093,523.472v12.267c0,0-130.251,38.538-23.476,92.851c0,0,70.336,32.12,190.582,29.202
		c0,0,154.918-1.755,203.315-47.889c0,0,39.539-28.615-20.838-60.734c0,0-10.417,33.577-10.417,34.453l-22.425-55.478l45.925-25.691
		l-8.978,32.699c0,0,80.334,32.124,54.393,78.841c0,0-30.933,68.324-241.988,73.29c0,0-116.252,3.207-199.574-32.414
		c0,0-82.299-29.198-57.35-80.004C151.259,574.865,167.567,543.329,242.093,523.472z"/>
	<g>
		<g>
			<path fill="#1A9A8B" d="M162.711,722c3.212-1.954,4.809-2.941,7.982-4.928c1.17,2.224,2.89,4.23,5.161,6.006
				s4.709,3.049,7.294,3.812c3.092,0.912,5.669,1.032,7.718,0.377c2.049-0.654,3.328-1.911,3.846-3.756
				c0.544-1.938,0.118-3.582-1.271-4.936c-1.388-1.353-3.864-2.538-7.43-3.594c-3.242-0.96-5.372-1.559-6.396-1.77
				c1.122-3.671,1.682-5.506,2.804-9.177c0.6,0.235,2.681,0.897,6.252,1.955c2.906,0.86,5.326,1.094,7.248,0.71
				c1.921-0.384,3.122-1.447,3.609-3.174c0.52-1.845,0.049-3.5-1.4-4.975c-1.449-1.476-3.529-2.609-6.245-3.413
				c-4.875-1.443-9.582-1.08-14.201,1.096c-1.326-3.224-1.977-4.835-3.26-8.063c6.263-3.496,13.259-4.039,21.164-1.712
				c5.726,1.686,9.927,4.111,12.636,7.361c2.709,3.251,3.56,6.877,2.491,10.898c-0.768,2.89-2.5,5.04-5.213,6.426
				c-2.714,1.386-8.882,1.566-8.882,1.566c-0.002,0.011,2.56,1.209,3.764,2.14c1.204,0.93,2.281,2.021,3.227,3.278
				c0.947,1.259,1.603,2.727,1.966,4.395c0.363,1.669,0.32,3.366-0.138,5.096c-1.115,4.212-3.89,7.144-8.372,8.733
				s-9.889,1.496-16.148-0.348c-4.593-1.353-8.466-3.312-11.593-5.836S163.996,724.915,162.711,722z"/>
			<path fill="#1A9A8B" d="M214.054,718.367c1.261-4.921,3.301-9.018,6.079-12.311c2.776-3.293,6.183-5.574,10.224-6.876
				s8.44-1.408,13.247-0.343c5.853,1.298,10.374,3.976,13.638,8.112c-2.559,2.832-3.848,4.244-6.448,7.055
				c-1.156-1.634-2.441-2.926-3.858-3.876s-3.203-1.661-5.361-2.14c-3.664-0.813-6.977-0.174-9.981,1.924s-4.999,5.104-5.947,9.049
				c-0.102,0.424-0.163,1.008-0.163,1.008c0.172,0.082,3.84-2.451,6.525-3.109c2.685-0.656,5.35-0.69,8.013-0.102
				c3.122,0.69,5.85,1.893,8.205,3.616c2.354,1.724,4.112,3.977,5.277,6.768c1.166,2.79,1.433,5.857,0.776,9.203
				c-0.949,4.831-3.613,8.479-8.058,10.892s-9.697,2.971-15.676,1.629c-3.924-0.881-7.233-2.35-9.905-4.379
				c-2.672-2.029-4.602-4.435-5.792-7.195c-1.19-2.76-1.842-5.732-1.964-8.91C212.762,725.204,213.158,721.865,214.054,718.367z
				 M223.746,727.199c-0.399,0.669-0.176,2.519-0.012,3.742c0.164,1.226,0.531,2.425,1.103,3.594
				c0.573,1.169,1.47,2.204,2.692,3.104c1.222,0.899,2.706,1.548,4.452,1.941c2.85,0.642,5.296,0.396,7.322-0.723
				c2.024-1.119,3.226-2.608,3.618-4.457c0.514-2.424-0.023-4.455-1.599-6.102c-1.576-1.646-3.693-2.763-6.361-3.364
				c-1.938-0.438-3.892-0.458-5.87-0.063C227.114,725.266,224.349,726.187,223.746,727.199z"/>
			<path fill="#1A9A8B" d="M260.529,738.329c-0.311-3.123-0.147-6.325,0.473-9.602s1.637-6.308,3.034-9.098s3.145-5.24,5.234-7.364
				c2.088-2.122,4.61-3.664,7.57-4.637c2.959-0.973,6.157-1.181,9.616-0.628c3.459,0.553,6.43,1.743,8.936,3.589
				c2.507,1.846,4.422,4.097,5.742,6.763c1.32,2.667,2.215,5.544,2.673,8.631c0.457,3.086,0.478,6.28,0.046,9.587
				s-1.272,6.4-2.539,9.271c-1.266,2.87-2.932,5.419-5.004,7.633c-2.072,2.213-4.663,3.848-7.771,4.883
				c-3.108,1.035-6.529,1.263-10.233,0.671c-3.705-0.592-6.885-1.872-9.519-3.824c-2.634-1.952-4.593-4.315-5.875-7.064
				C261.63,744.389,260.84,741.452,260.529,738.329z M272.189,730.759c-0.554,3.188-0.713,6.02-0.465,8.488
				c0.248,2.47,1.039,4.579,2.382,6.32s3.241,2.811,5.681,3.2c2.44,0.39,4.575-0.037,6.393-1.273s3.228-2.994,4.231-5.264
				c1.003-2.269,1.734-5.009,2.2-8.211s0.552-6.02,0.267-8.453s-1.087-4.5-2.398-6.198c-1.312-1.699-3.143-2.733-5.503-3.11
				c-1.764-0.281-3.368-0.128-4.821,0.464c-1.454,0.592-2.688,1.569-3.705,2.938s-1.88,2.969-2.585,4.8
				S272.601,728.391,272.189,730.759z"/>
			<path fill="#1A9A8B" d="M325.611,756.426c2.721-2.947,4.069-4.425,6.741-7.396c1.785,2.124,4.021,3.913,6.71,5.359
				c2.688,1.446,5.698,2.29,9.008,2.52c2.883,0.199,5.126-0.175,6.714-1.108c1.588-0.934,2.424-2.173,2.513-3.707
				c0.057-0.99-0.315-1.871-1.116-2.641c-0.8-0.771-1.876-1.379-3.223-1.825c-1.346-0.446-2.875-0.956-4.579-1.533
				c-1.705-0.577-3.455-1.129-5.25-1.655c-1.796-0.527-3.533-1.233-5.206-2.117s-3.138-1.874-4.398-2.967
				c-1.261-1.093-2.227-2.514-2.898-4.254c-0.671-1.74-0.9-3.687-0.693-5.841c0.394-4.093,2.431-7.358,6.056-9.837
				c3.625-2.479,8.198-3.495,13.78-3.101c7.765,0.55,13.938,3.08,18.643,7.713c-2.453,2.947-3.692,4.417-6.193,7.344
				c-1.868-1.842-4.023-3.276-6.471-4.313c-2.448-1.035-4.96-1.647-7.553-1.834c-2.188-0.157-3.926,0.135-5.221,0.883
				c-1.295,0.749-2.003,1.838-2.121,3.273c-0.072,0.88,0.273,1.676,1.041,2.39c0.767,0.714,1.817,1.303,3.148,1.764
				c1.331,0.461,2.845,0.959,4.541,1.486c1.696,0.528,3.42,1.057,5.168,1.587c1.749,0.53,3.456,1.229,5.122,2.095
				c1.665,0.866,3.147,1.837,4.446,2.912c1.3,1.075,2.322,2.476,3.065,4.199s1.074,3.664,0.981,5.826
				c-0.197,4.577-2.107,8.215-5.784,10.875c-3.677,2.659-8.895,3.8-15.592,3.332C337.758,765.211,330.58,762.01,325.611,756.426z"/>
			<path fill="#1A9A8B" d="M375.845,747.213c0.321-9.592,0.645-19.185,0.966-28.776c4.214,0.142,6.322,0.198,10.538,0.279
				c-0.183,9.52-0.362,19.038-0.547,28.558c-0.065,3.427,0.918,6.197,2.977,8.295c2.058,2.098,5.044,3.165,8.938,3.179
				c3.868,0.013,6.841-1.031,8.888-3.102c2.047-2.071,3.039-4.841,2.997-8.292c-0.118-9.52-0.236-19.04-0.352-28.56
				c4.216-0.052,6.326-0.093,10.541-0.205c0.256,9.595,0.508,19.188,0.766,28.783c0.08,3-0.323,5.73-1.224,8.19
				c-0.9,2.461-2.269,4.611-4.107,6.439s-4.251,3.249-7.237,4.25s-6.426,1.51-10.302,1.496c-7.7-0.026-13.526-1.97-17.393-5.705
				C377.427,758.309,375.639,753.35,375.845,747.213z"/>
			<path fill="#1A9A8B" d="M432.42,766.252c-0.642-15.995-1.28-31.99-1.917-47.985c10.252-0.409,15.378-0.702,25.614-1.471
				c2.23-0.167,4.276,0.002,6.148,0.516c1.874,0.514,3.426,1.29,4.66,2.331c1.234,1.042,2.225,2.259,2.97,3.647
				c0.746,1.391,1.198,2.888,1.351,4.498c0.271,2.87-0.307,5.369-1.748,7.489c-1.441,2.121-5.794,4.229-5.794,4.229
				c0.004,0.04,5.121,1.277,7.172,3.324c2.052,2.048,3.231,4.55,3.515,7.512c0.361,3.779-0.635,7.015-3.029,9.689
				c-2.395,2.676-5.997,4.22-10.775,4.584C451.208,765.333,441.818,765.871,432.42,766.252z M441.926,736.841
				c5.347-0.29,8.021-0.459,13.363-0.844c1.781-0.128,3.162-0.693,4.138-1.687s1.397-2.262,1.274-3.804
				c-0.119-1.494-0.734-2.66-1.843-3.504c-1.108-0.843-2.539-1.197-4.296-1.07c-5.271,0.38-7.907,0.544-13.183,0.83
				C441.599,730.793,441.708,732.811,441.926,736.841z M443.006,756.745c5.67-0.307,8.503-0.485,14.167-0.896
				c2.054-0.149,3.618-0.758,4.69-1.818c1.073-1.06,1.539-2.446,1.4-4.151c-0.127-1.564-0.805-2.813-2.023-3.753
				c-1.219-0.938-2.837-1.331-4.861-1.184c-5.584,0.406-8.376,0.584-13.965,0.887C442.651,750.196,442.77,752.377,443.006,756.745z"
				/>
			<path fill="#1A9A8B" d="M478.555,763.038c4.959-16.555,9.604-33.166,13.947-49.893c5.186-0.651,7.775-1,12.952-1.745
				c8.617,14.983,17.506,29.769,26.68,44.417c-4.972,0.847-7.46,1.248-12.442,2.014c-1.791-3.011-2.678-4.517-4.442-7.537
				c-8.744,1.306-13.125,1.896-21.895,2.949c-0.901,3.38-1.36,5.067-2.29,8.445C486.064,762.268,483.563,762.54,478.555,763.038z
				 M495.208,743.951c6.31-0.783,9.461-1.208,15.757-2.123c-4.337-7.726-6.466-11.604-10.636-19.386
				C498.368,731.049,497.344,735.353,495.208,743.951z"/>
			<path fill="#1A9A8B" d="M536.879,754.994c-2.783-15.764-5.569-31.526-8.352-47.29c4.224-0.746,6.334-1.135,10.549-1.943
				c9.403,8.514,19.027,16.786,28.857,24.804c-2.201-9.812-4.396-19.624-6.601-29.435c4.083-0.916,6.12-1.388,10.192-2.362
				c3.733,15.566,7.446,31.138,11.177,46.704c-4.19,1.003-6.286,1.491-10.487,2.436c-10.319-8.293-20.414-16.866-30.281-25.691
				c1.968,10.254,3.923,20.51,5.888,30.765C543.45,753.817,541.26,754.22,536.879,754.994z"/>
			<path fill="#1A9A8B" d="M584.49,720.355c-1.193-4.775-1.063-9.311,0.329-13.608c1.393-4.297,3.746-7.915,7.065-10.883
				s7.275-5.104,11.916-6.443c2.354-0.68,4.649-1.059,6.888-1.134s4.299,0.132,6.18,0.622c1.882,0.491,3.611,1.128,5.181,1.913
				c1.57,0.785,3.046,1.738,4.429,2.857c-2.787,2.838-4.193,4.251-7.032,7.062c-1.729-1.373-3.761-2.33-6.089-2.881
				s-4.675-0.482-7.059,0.205c-4.37,1.261-7.572,3.708-9.65,7.383s-2.561,7.71-1.39,12.117c1.17,4.406,3.604,7.681,7.347,9.781
				c3.744,2.102,7.924,2.504,12.481,1.189c3.363-0.971,5.893-2.657,7.568-5.034s2.522-5.021,2.55-7.92
				c-6.129,1.885-9.201,2.792-15.358,4.545c-0.985-3.463-1.479-5.193-2.465-8.656c10.655-3.033,15.964-4.649,26.529-8.083
				c2.644,8.137,2.501,15.267-0.571,21.369c-3.072,6.104-8.691,10.397-16.757,12.713c-3.453,0.991-6.919,1.344-10.377,1.062
				s-6.646-1.144-9.553-2.578c-2.907-1.434-5.438-3.503-7.598-6.197C586.896,727.062,585.382,723.924,584.49,720.355z"/>
		</g>
	</g>
</g>
</svg>
