<?xml version="1.0" encoding="utf-8"?>
<!-- Generator: Adobe Illustrator 21.0.0, SVG Export Plug-In . SVG Version: 6.00 Build 0)  -->
<svg version="1.1" id="Layer_1" xmlns="http://www.w3.org/2000/svg" xmlns:xlink="http://www.w3.org/1999/xlink" x="0px" y="0px"
	 viewBox="0 0 389 278" style="enable-background:new 0 0 389 278;" xml:space="preserve">
<style type="text/css">
	.st0{fill:#20BA87;}
	.st1{fill:#2ED881;}
</style>
<title>sudut-pattern</title>
<g>
	<g id="Layer_1_1_">
		<path class="st0" d="M8.1,333.7c0,0,95.5-20.3,165.1-124.2c0,0,63.1-59.4,111.4-23.6c0,0,9.4-55.3,52.3-75.8
			c0,0,35.6-21.8,52.6-83.1v306.8H8.1z"/>
		
			<image style="overflow:visible;opacity:0.75;enable-background:new    ;" width="389" height="278" xlink:href="45A4877C.png"  transform="matrix(1.0643 0 0 1.2986 0 0)">
		</image>
		<path class="st1" d="M9,332.4c0,0,57.7-20.2,76.2-39.6c0,0-52.9,29.9-69,19.8c0,0,56.6,5.9,124.6-78.9s123.6-77.2,135.6-65.4
			c0,0,2.1-31.1,63.5-80.5c0,0,45.3-43.4,49.7-77c0,0,0.7,33.7-49.2,91c0,0,37-27.8,49.8-76.2c0,0-7.4,52-49.1,84.6
			c0,0-22.7,18.5-31.4,29.8c0,0,17.4-11,22.9,2.2c0,0-6.4-13.8-25.4,2.8c-3.7,3.4-6.7,7.8-8.7,13c0,0,26.2-30.9,29.6-9.1
			c0,0-2.1-22.3-29.5,13c0,0-14.9,33.2,9.8,50.9c0,0-7.2,4.6-30.4-17.4c0,0-47.4-36.9-107.4,32.8C170.5,228.4,104.6,319.4,9,332.4z"
			/>
	</g>
</g>
</svg>
